<?xml version="1.0" encoding="utf-8"?>
<!-- Generator: Adobe Illustrator 22.0.1, SVG Export Plug-In . SVG Version: 6.00 Build 0)  -->
<svg version="1.1" id="Layer_1" xmlns="http://www.w3.org/2000/svg" xmlns:xlink="http://www.w3.org/1999/xlink" x="0px" y="0px"
	 viewBox="0 0 50 50" style="enable-background:new 0 0 50 50;" xml:space="preserve">
<style type="text/css">
	.st0{fill:#C0A987;}
</style>
<g>
	<path class="st0" d="M36.3,19.2h-3.5h-3.2h-20H6.4H2.9c-1.7,0-3.1,1.4-3.1,3.1v3.1v3.3v3.6v3.3v3.3c0,1.7,1.4,3.1,3.1,3.1h3.3h3.3
		h20.1h3.3h3.4c1.7,0,3.1-1.4,3.1-3.1v-3.3v-3.3v-3.6v-3.3v-3.1C39.4,20.5,38,19.2,36.3,19.2z M36.3,22.2v3.5
		c-1.8-0.4-3.2-1.8-3.7-3.5H36.3z M2.9,22.2h3.7c-0.5,1.8-1.9,3.2-3.7,3.5L2.9,22.2z M2.9,38.9v-3.7c1.9,0.4,3.3,1.9,3.7,3.7H2.9z
		 M29.4,38.9H9.7c-0.4-3.6-3.3-6.4-6.8-6.8v-3.2c3.5-0.4,6.3-3.1,6.8-6.6h19.7c0.5,3.5,3.3,6.2,6.8,6.6V32
		C32.7,32.5,29.9,35.3,29.4,38.9z M32.5,38.8c0.4-1.9,1.9-3.3,3.8-3.7v3.7H32.5z M36.3,40.4L36.3,40.4v-1.5V40.4z"/>
	<path class="st0" d="M19.9,23.3c-4,0-7.2,3.2-7.2,7.2s3.2,7.2,7.2,7.2s7.2-3.2,7.2-7.2S23.9,23.3,19.9,23.3z M19.9,34.7
		c-2.3,0-4.1-1.9-4.1-4.1s1.9-4.1,4.1-4.1s4.1,1.9,4.1,4.1S22.2,34.7,19.9,34.7z"/>
	<path class="st0" d="M41.1,13.6H6.9c-0.9,0-1.7,0.8-1.7,1.7C5.2,16.2,6,17,6.9,17L41,16.9v19.5c0,0.9,0.8,1.7,1.7,1.7
		s1.7-0.8,1.7-1.7V16.9C44.5,15.1,42.9,13.6,41.1,13.6z"/>
	<path class="st0" d="M46,8.1H11.9c-0.9,0-1.7,0.8-1.7,1.7s0.8,1.7,1.7,1.7L46,11.4v19.5c0,0.9,0.8,1.7,1.7,1.7s1.7-0.8,1.7-1.7
		V11.4C49.4,9.6,47.9,8.1,46,8.1z"/>
</g>
</svg>
