<svg id="Group_2881" data-name="Group 2881" xmlns="http://www.w3.org/2000/svg" xmlns:xlink="http://www.w3.org/1999/xlink" viewBox="3660.869 -7265.089 402.529 138.22">
  <defs>
    <style>
      .cls-1, .cls-4 {
        fill: none;
        stroke-linecap: round;
        stroke-miterlimit: 10;
        stroke-width: 4px;
      }

      .cls-1 {
        stroke: #343434;
      }

      .cls-2 {
        opacity: 0.317;
        fill: url(#linear-gradient);
      }

      .cls-3 {
        fill: #d6a97c;
      }

      .cls-4 {
        stroke: #d6a97c;
      }
    </style>
    <linearGradient id="linear-gradient" x1="0.903" y1="0.624" x2="0.006" y2="1" gradientUnits="objectBoundingBox">
      <stop offset="0" stop-color="#36c5d1" stop-opacity="0"/>
      <stop offset="1" stop-color="#00b7e3" stop-opacity="0.212"/>
    </linearGradient>
  </defs>
  <line id="Line_503" data-name="Line 503" class="cls-1" y1="81.449" x2="290.095" transform="translate(3663.5 -7210.949)"/>
  <line id="Line_504" data-name="Line 504" class="cls-1" y1="35" x2="290" transform="translate(3663.5 -7164.5)"/>
  <line id="Line_707" data-name="Line 707" class="cls-1" x2="289.74" y2="0.37" transform="translate(3663.76 -7129.87)"/>
  <path id="Path_1488" data-name="Path 1488" class="cls-2" d="M1866.184-92.889l288.938-127.287V-93.051Z" transform="translate(1798 -7035)"/>
  <path id="Path_1497" data-name="Path 1497" class="cls-3" d="M7.29,0,7.5-1.275H2.415a5.936,5.936,0,0,1,2.25-2.46c1.815-1.38,2.445-2,2.445-3.48,0-1.395-.855-2.835-3.135-2.835a3.082,3.082,0,0,0-3.3,2.97h1.44c.195-1.14.7-1.755,1.86-1.755A1.488,1.488,0,0,1,5.595-7.17c0,1.035-.42,1.425-1.965,2.595C1.575-3.03.66-1.575.66-.09V0Zm7.845-9.87H9.615c-.15,1.26-.54,4.11-.825,5.385l1.365.24a1.831,1.831,0,0,1,1.935-1.23c1.335,0,1.83.915,1.83,2.145,0,1.395-.63,2.31-1.905,2.31a1.848,1.848,0,0,1-1.92-1.47H8.61A3.111,3.111,0,0,0,11.97.18c2.43,0,3.45-1.7,3.45-3.615,0-1.995-1.155-3.285-2.985-3.285a2.6,2.6,0,0,0-2.01.75c.09-.51.33-1.89.4-2.64h4.095Zm3.915-.18a2.544,2.544,0,0,0-2.535,2.82c0,1.74.93,2.835,2.52,2.835A2.538,2.538,0,0,0,21.6-7.245,2.494,2.494,0,0,0,19.05-10.05Zm0,1.035c.84,0,1.35.615,1.35,1.77s-.5,1.8-1.335,1.8c-.87,0-1.32-.7-1.32-1.8C17.745-8.4,18.255-9.015,19.05-9.015ZM20.085,0l6.36-9.87H25.23L18.87,0Zm6.18-5.46A2.54,2.54,0,0,0,23.73-2.625c0,1.68.915,2.82,2.505,2.82A2.532,2.532,0,0,0,28.8-2.64C28.8-4.41,27.825-5.46,26.265-5.46ZM26.25-4.41c.84,0,1.35.615,1.35,1.77,0,1.14-.48,1.8-1.32,1.8-.87,0-1.335-.72-1.335-1.8C24.945-3.765,25.485-4.41,26.25-4.41ZM34.38,0h1.545V-4.815h5.19V0H42.66V-10.425H41.115V-6.12h-5.19v-4.305H34.38ZM44.97,0h1.47V-7.635H44.97Zm1.47-9.3v-1.695H44.97V-9.3ZM50.1,0V-10.995H48.63V0Zm3.66,0V-10.995H52.29V0ZM68.535-5.67h-4.32v1.32H67.02v.105c0,1.605-.54,3.1-2.79,3.1-2.295,0-3.21-1.95-3.21-4.035,0-2.22.885-4.125,3.255-4.125A2.606,2.606,0,0,1,67.05-7.38H68.6c-.285-1.845-1.83-3.195-4.29-3.195-3.18,0-4.905,2.355-4.905,5.475C59.4-2.13,61,.15,64.02.15a3.476,3.476,0,0,0,3.195-1.485A5.969,5.969,0,0,0,67.365,0h1.17ZM70.71,0h1.47V-3.63c0-1.965.99-2.7,2.55-2.73V-7.815a2.64,2.64,0,0,0-2.55,1.7c0-.675-.015-1.305-.045-1.515h-1.44c0,.45.015,1.065.015,2.07ZM81.66-5.295c0-1.74-1.035-2.52-2.94-2.52-2.22-.015-2.91,1.185-3.015,2.3H77.13c.12-.585.33-1.17,1.545-1.17,1.335,0,1.545.765,1.545,1.41v.615H78.96c-2.265,0-3.615.8-3.615,2.505A2.319,2.319,0,0,0,77.925.18a2.328,2.328,0,0,0,2.31-1.125A4.625,4.625,0,0,0,80.37,0h1.395a12.688,12.688,0,0,1-.1-1.725Zm-1.425,1.86c0,1.3-.24,2.49-1.98,2.49a1.274,1.274,0,0,1-1.41-1.305c0-1,.75-1.425,2.22-1.425h1.17Zm8.64-7.56v4.11c-.21-.42-.81-.93-2.1-.93-2.13,0-3.435,1.725-3.435,4.08C83.34-1.41,84.555.18,86.52.18a2.36,2.36,0,0,0,2.355-1.215c0,.285.03.825.06,1.035H90.36c-.015-.735-.015-1.44-.015-2.145v-8.85ZM84.87-3.78c0-1.785.78-2.805,2.085-2.805,1.65,0,1.965,1.05,1.965,2.67,0,1.575-.345,2.865-2.07,2.865C85.695-1.05,84.87-2.01,84.87-3.78Zm13.92.24a4.225,4.225,0,0,0,.03-.63c0-1.68-.825-3.645-3.315-3.645C93.15-7.815,92-6.03,92-3.735,92-1.755,93,.18,95.415.18a3.147,3.147,0,0,0,3.27-2.325H97.2a1.641,1.641,0,0,1-1.74,1.11c-1.245,0-1.965-1.065-1.98-2.5ZM93.525-4.545c.12-1.245.675-2.13,1.965-2.13,1.245,0,1.83.945,1.845,2.13Z" transform="translate(3964.578 -7254.094)"/>
  <line id="Line_505" data-name="Line 505" class="cls-4" y1="125.841" x2="290.095" transform="translate(3663.5 -7255.341)"/>
</svg>
