<svg id="Group_2879" data-name="Group 2879" xmlns="http://www.w3.org/2000/svg" viewBox="3498.95 -6196.16 455.798 63.66">
  <defs>
    <style>
      .cls-1 {
        fill: #fff;
      }

      .cls-2 {
        fill: none;
        stroke: #fff;
        opacity: 0.5;
      }
    </style>
  </defs>
  <path id="Path_1536" data-name="Path 1536" class="cls-1" d="M.574-2.716c.21,1.5,1.26,2.842,3.71,2.842,2.38,0,3.542-1.232,3.542-2.8,0-1.26-.49-2.338-3.262-3.01C2.856-6.1,2.31-6.468,2.31-7.378s.658-1.456,1.848-1.456A1.892,1.892,0,0,1,6.3-7.266H7.616C7.476-8.54,6.524-9.884,4.2-9.884,2.03-9.884.966-8.708.966-7.252c0,1.372.8,2.156,3.094,2.716,1.946.462,2.422,1.008,2.422,1.988,0,.924-.6,1.638-2.114,1.638A2.227,2.227,0,0,1,1.89-2.716ZM15.12-7.1H13.888v3.7c0,1.778-.5,2.506-1.806,2.506-1.176,0-1.47-.868-1.47-1.792V-7.1H9.394v4.662c0,2,1.148,2.6,2.352,2.6a2.1,2.1,0,0,0,2.142-1.232c.014.448.028.882.056,1.064h1.19c0-.42-.014-1.372-.014-2.072Zm3.318,9.884V-.882A2.157,2.157,0,0,0,20.51.168c1.722,0,3.08-1.358,3.08-3.906,0-2.156-1.19-3.528-2.828-3.528a2.443,2.443,0,0,0-2.324,1.288c0-.462-.014-.882-.042-1.12h-1.19c.014.546.014,1.148.014,1.736V2.786ZM22.33-3.682c0,1.75-.686,2.814-1.988,2.814-1.484,0-1.96-1.022-1.96-2.688,0-1.736.588-2.66,2.058-2.66C21.644-6.216,22.33-5.194,22.33-3.682Zm8.694.35c.014-.182.014-.364.014-.588,0-1.512-.742-3.346-3.038-3.346-2.156,0-3.22,1.68-3.22,3.794,0,1.82.91,3.64,3.136,3.64a2.9,2.9,0,0,0,3-2.128H29.666A1.635,1.635,0,0,1,27.958-.854c-1.2,0-1.932-1.036-1.946-2.478Zm-4.97-.854c.126-1.246.672-2.114,1.932-2.114,1.2,0,1.792.938,1.806,2.114ZM32.606,0h1.232V-3.444c0-1.792.924-2.562,2.38-2.6V-7.266a2.481,2.481,0,0,0-2.38,1.61c0-.686-.028-1.246-.042-1.442h-1.2c0,.378.014.938.014,1.932Zm8.708,0h1.274V-4.368H47.25V-5.474H42.588V-8.638h4.984V-9.744H41.314Zm8.792,0V-10.276H48.874V0Zm7.826-3.332c.014-.182.014-.364.014-.588,0-1.512-.742-3.346-3.038-3.346-2.156,0-3.22,1.68-3.22,3.794,0,1.82.91,3.64,3.136,3.64a2.9,2.9,0,0,0,3-2.128H56.574A1.635,1.635,0,0,1,54.866-.854c-1.2,0-1.932-1.036-1.946-2.478Zm-4.97-.854c.126-1.246.672-2.114,1.932-2.114,1.2,0,1.792.938,1.806,2.114ZM58.6-7.1l2.31,3.556L58.534,0h1.372c.924-1.456,1.5-2.408,1.736-2.8h.014c.28.462.882,1.414,1.75,2.8H64.82L62.4-3.682,64.792-7.1H63.42c-.84,1.274-1.428,2.2-1.736,2.646H61.67C61.418-4.844,61-5.516,59.99-7.1ZM76.09-2.758A2.5,2.5,0,0,1,73.57-.952c-2.254,0-3.08-2.016-3.08-3.934,0-1.96.868-3.92,3.024-3.92A2.458,2.458,0,0,1,76.1-6.944h1.288a3.556,3.556,0,0,0-3.836-2.94c-2.954,0-4.424,2.394-4.424,5.04,0,2.758,1.47,4.97,4.382,4.97a3.7,3.7,0,0,0,3.878-2.884Zm5.8-4.508c-2.142,0-3.346,1.624-3.346,3.724C78.54-1.4,79.772.168,81.8.168c2.17,0,3.346-1.68,3.346-3.738C85.148-5.8,83.86-7.266,81.886-7.266ZM81.83-6.244c1.33,0,2.058,1.106,2.058,2.7s-.742,2.688-2.03,2.688S79.8-1.988,79.8-3.556C79.8-5.166,80.5-6.244,81.83-6.244ZM86.744,0h1.232V-3.752c0-1.428.532-2.45,1.876-2.45,1.078,0,1.5.714,1.5,1.792V0h1.232V-4.564c0-1.89-1.036-2.7-2.38-2.7a2.227,2.227,0,0,0-2.226,1.33A10.761,10.761,0,0,0,87.92-7.1H86.73c.014.546.014,1.176.014,1.792Zm7.224-2.03c.182,1.274,1.092,2.2,2.926,2.2,1.764,0,2.758-.91,2.758-2.156,0-1.05-.434-1.764-2.59-2.282-1.3-.308-1.6-.574-1.6-1.106,0-.462.308-.938,1.3-.938a1.416,1.416,0,0,1,1.54,1.092h1.176c-.084-.98-.84-2.044-2.674-2.044s-2.562.994-2.562,1.988c0,.966.42,1.6,2.45,2.086,1.358.322,1.68.63,1.68,1.3,0,.644-.406,1.092-1.442,1.092A1.6,1.6,0,0,1,95.2-2.03ZM100.254-6.1h1.232v4.452c0,1.176.476,1.75,1.582,1.75a3.267,3.267,0,0,0,1.064-.126V-.952a3.248,3.248,0,0,1-.616.056c-.644,0-.812-.35-.812-1.05V-6.1h1.568V-7.1H102.7V-9.2h-1.218v2.1h-1.232ZM105.518,0h1.232V-3.444c0-1.792.924-2.562,2.38-2.6V-7.266a2.481,2.481,0,0,0-2.38,1.61c0-.686-.028-1.246-.042-1.442h-1.2c0,.378.014.938.014,1.932Zm10.514-7.1H114.8v3.7c0,1.778-.5,2.506-1.806,2.506-1.176,0-1.47-.868-1.47-1.792V-7.1h-1.218v4.662c0,2,1.148,2.6,2.352,2.6A2.1,2.1,0,0,0,114.8-1.064c.014.448.028.882.056,1.064h1.19c0-.42-.014-1.372-.014-2.072Zm6.482,4.928A1.689,1.689,0,0,1,120.82-.854c-1.232,0-1.918-1.078-1.918-2.7s.714-2.688,1.96-2.688A1.573,1.573,0,0,1,122.514-4.9h1.218a2.641,2.641,0,0,0-2.842-2.366c-2.114,0-3.248,1.75-3.248,3.752,0,2.282,1.2,3.682,3.164,3.682a2.809,2.809,0,0,0,2.926-2.338ZM124.446-6.1h1.232v4.452c0,1.176.476,1.75,1.582,1.75a3.267,3.267,0,0,0,1.064-.126V-.952a3.248,3.248,0,0,1-.616.056c-.644,0-.812-.35-.812-1.05V-6.1h1.568V-7.1H126.9V-9.2h-1.218v2.1h-1.232Zm5.32,6.1H131V-7.1h-1.232ZM131-8.75v-1.526h-1.232V-8.75Zm4.928,1.484c-2.142,0-3.346,1.624-3.346,3.724,0,2.142,1.232,3.71,3.262,3.71,2.17,0,3.346-1.68,3.346-3.738C139.188-5.8,137.9-7.266,135.926-7.266Zm-.056,1.022c1.33,0,2.058,1.106,2.058,2.7s-.742,2.688-2.03,2.688-2.058-1.134-2.058-2.7C133.84-5.166,134.54-6.244,135.87-6.244ZM140.784,0h1.232V-3.752c0-1.428.532-2.45,1.876-2.45,1.078,0,1.5.714,1.5,1.792V0h1.232V-4.564c0-1.89-1.036-2.7-2.38-2.7a2.227,2.227,0,0,0-2.226,1.33A10.76,10.76,0,0,0,141.96-7.1h-1.19c.014.546.014,1.176.014,1.792Z" transform="translate(3646 -6136.938)"/>
  <path id="Path_1537" data-name="Path 1537" class="cls-2" d="M0,52V0" transform="translate(3625.5 -6184.5)"/>
  <path id="Path_1538" data-name="Path 1538" class="cls-2" d="M0,52V0" transform="translate(3812.5 -6184.5)"/>
  <path id="Path_1539" data-name="Path 1539" class="cls-1" d="M1.288,0h1.3V-4H4.9C6.8-4,8.176-5.012,8.176-6.9c0-1.778-1.3-2.842-3.192-2.842h-3.7Zm1.3-8.652h2.3a1.722,1.722,0,0,1,1.96,1.778c0,1.134-.672,1.778-2,1.778H2.59Zm9.744,1.386c-2.142,0-3.346,1.624-3.346,3.724C8.988-1.4,10.22.168,12.25.168c2.17,0,3.346-1.68,3.346-3.738C15.6-5.8,14.308-7.266,12.334-7.266Zm-.056,1.022c1.33,0,2.058,1.106,2.058,2.7s-.742,2.688-2.03,2.688-2.058-1.134-2.058-2.7C10.248-5.166,10.948-6.244,12.278-6.244ZM18.424,0V-10.276H17.192V0Zm1.288-7.1L22.372.28c-.42,1.176-.756,1.568-1.652,1.568-.2,0-.406-.014-.588-.028V2.884c.28.028.546.042.77.042,1.442,0,1.988-.518,2.7-2.6L26.152-7.1H24.92c-1.162,3.57-1.666,5.194-1.89,6.006h-.014c-.2-.728-.826-2.6-1.974-6.006ZM27.468,0h1.218V-3.934c0-1.344.546-2.268,1.68-2.268s1.372.812,1.372,1.722V0h1.2V-4.074c0-1.26.5-2.128,1.666-2.128,1.106,0,1.4.868,1.4,1.68V0h1.2V-4.662c0-1.918-1.078-2.6-2.24-2.6a2.416,2.416,0,0,0-2.254,1.274,1.956,1.956,0,0,0-1.974-1.274,2.193,2.193,0,0,0-2.058,1.26c0-.364-.028-.882-.056-1.092H27.454c.014.574.014,1.218.014,1.834ZM45.052-3.332c.014-.182.014-.364.014-.588,0-1.512-.742-3.346-3.038-3.346-2.156,0-3.22,1.68-3.22,3.794,0,1.82.91,3.64,3.136,3.64a2.9,2.9,0,0,0,3-2.128H43.694A1.635,1.635,0,0,1,41.986-.854c-1.2,0-1.932-1.036-1.946-2.478Zm-4.97-.854c.126-1.246.672-2.114,1.932-2.114,1.2,0,1.792.938,1.806,2.114ZM46.634,0h1.232V-3.444c0-1.792.924-2.562,2.38-2.6V-7.266a2.481,2.481,0,0,0-2.38,1.61c0-.686-.028-1.246-.042-1.442h-1.2c0,.378.014.938.014,1.932Zm7.994-2.716c.21,1.5,1.26,2.842,3.71,2.842,2.38,0,3.542-1.232,3.542-2.8,0-1.26-.49-2.338-3.262-3.01-1.708-.42-2.254-.784-2.254-1.694s.658-1.456,1.848-1.456a1.892,1.892,0,0,1,2.142,1.568H61.67c-.14-1.274-1.092-2.618-3.416-2.618-2.17,0-3.234,1.176-3.234,2.632,0,1.372.8,2.156,3.094,2.716,1.946.462,2.422,1.008,2.422,1.988,0,.924-.6,1.638-2.114,1.638a2.227,2.227,0,0,1-2.478-1.806ZM63.588,0H64.82V-7.1H63.588ZM64.82-8.75v-1.526H63.588V-8.75Zm6.762-1.526v3.92c-.182-.406-.742-.91-2-.91-1.96,0-3.178,1.61-3.178,3.794,0,2.156,1.12,3.64,2.954,3.64a2.214,2.214,0,0,0,2.226-1.176A6.964,6.964,0,0,0,71.652,0h1.176c-.014-.686-.014-1.344-.014-2v-8.274ZM67.676-3.514c0-1.722.77-2.716,2.03-2.716,1.6,0,1.932.994,1.932,2.576,0,1.554-.378,2.786-2.03,2.786C68.488-.868,67.676-1.806,67.676-3.514Zm12.964.182c.014-.182.014-.364.014-.588,0-1.512-.742-3.346-3.038-3.346-2.156,0-3.22,1.68-3.22,3.794,0,1.82.91,3.64,3.136,3.64a2.9,2.9,0,0,0,3-2.128H79.282A1.635,1.635,0,0,1,77.574-.854c-1.2,0-1.932-1.036-1.946-2.478Zm-4.97-.854C75.8-5.432,76.342-6.3,77.6-6.3c1.2,0,1.792.938,1.806,2.114ZM81.564-7.1,83.622,0h1.372c.8-2.814,1.428-4.984,1.554-5.754h.014c.154.77.84,3.164,1.526,5.754h1.33L91.6-7.1H90.356c-1.106,4-1.386,5.068-1.568,5.824h-.014c-.112-.644-.448-1.806-1.554-5.824h-1.2C85.008-3.57,84.5-1.792,84.378-1.134h-.014c-.126-.728-.63-2.632-1.512-5.964Zm16.45,2.156c0-1.61-.966-2.324-2.7-2.324-2.044,0-2.646,1.12-2.744,2.1h1.19c.126-.546.336-1.134,1.512-1.134,1.33,0,1.526.756,1.526,1.386v.6h-1.2c-2.114,0-3.36.728-3.36,2.31A2.15,2.15,0,0,0,94.626.168a2.262,2.262,0,0,0,2.2-1.092A3.661,3.661,0,0,0,96.936,0h1.176a11.013,11.013,0,0,1-.1-1.554Zm-1.2,1.708c0,1.288-.224,2.436-1.932,2.436a1.245,1.245,0,0,1-1.386-1.274c0-.994.756-1.386,2.17-1.386H96.81ZM101.36,0V-10.276h-1.232V0Zm3.318,0V-10.276h-1.232V0Zm1.386-2.03c.182,1.274,1.092,2.2,2.926,2.2,1.764,0,2.758-.91,2.758-2.156,0-1.05-.434-1.764-2.59-2.282-1.3-.308-1.6-.574-1.6-1.106,0-.462.308-.938,1.3-.938a1.416,1.416,0,0,1,1.54,1.092h1.176c-.084-.98-.84-2.044-2.674-2.044s-2.562.994-2.562,1.988c0,.966.42,1.6,2.45,2.086,1.358.322,1.68.63,1.68,1.3,0,.644-.406,1.092-1.442,1.092A1.6,1.6,0,0,1,107.3-2.03Z" transform="translate(3843 -6136.938)"/>
  <path id="Path_1467" data-name="Path 1467" class="cls-1" d="M51,11h0a2.006,2.006,0,0,1-2-2,1.4,1.4,0,0,0-1.2-1.4,1.268,1.268,0,0,0-.6-.1l-1.6-.2a3.756,3.756,0,0,1-2.3-.6c-1.2-.7-2.4-1.4-2.5-1.4A8.481,8.481,0,0,0,37.2,4H15.7a9.366,9.366,0,0,0-3.5,1.3c-.1.1-1.3.8-2.5,1.5a4.54,4.54,0,0,1-2.3.5H7.3l-1.5.2c-.2,0-.4.1-.6.1A1.4,1.4,0,0,0,4,9a2.006,2.006,0,0,1-2,2H2A2.006,2.006,0,0,1,0,9,5.42,5.42,0,0,1,4.3,3.7c.3-.1.6-.1.9-.2h.1l1.6-.2h.2c.4,0,.4,0,.6-.1C8.9,2.6,10,1.9,10,1.9A12.255,12.255,0,0,1,15.4,0H37.5A11.791,11.791,0,0,1,43,2h0s1.1.7,2.1,1.2c.2.1.2.1.6.1h.2l1.6.2h.1a2.92,2.92,0,0,1,.9.2A5.491,5.491,0,0,1,53,9,2.006,2.006,0,0,1,51,11Z" transform="translate(3877 -6185)"/>
  <path id="Path_1468" data-name="Path 1468" class="cls-1" d="M37.4,18h-22a11.791,11.791,0,0,1-5.5-2h0s-1.1-.7-2.1-1.2c-.2-.1-.2-.1-.6-.1H7l-1.6-.2H5.3a3.711,3.711,0,0,1-.9-.2A5.491,5.491,0,0,1,0,9,2.006,2.006,0,0,1,2,7H2A2.006,2.006,0,0,1,4,9a1.47,1.47,0,0,0,1.2,1.4,1.268,1.268,0,0,0,.6.1l1.6.2a3.756,3.756,0,0,1,2.3.6c1.2.7,2.4,1.4,2.5,1.4A8.481,8.481,0,0,0,15.8,14H37.4a9.366,9.366,0,0,0,3.5-1.3c.1-.1,1.3-.8,2.5-1.5a4.866,4.866,0,0,1,2.3-.6h.1l1.5-.2c.2,0,.4-.1.6-.1a1.511,1.511,0,0,0,1.2-1.4,2.006,2.006,0,0,1,2-2h0a2.006,2.006,0,0,1,2,2,5.42,5.42,0,0,1-4.3,5.3c-.3.1-.6.1-.9.2h-.1l-1.8.2h-.2c-.4,0-.4,0-.6.1C44.1,15.3,43,16,43,16a12.255,12.255,0,0,1-5.4,1.9A.31.31,0,0,1,37.4,18Z" transform="translate(3877 -6185)"/>
  <path id="Path_1533" data-name="Path 1533" class="cls-1" d="M-50.05,0h6.188l.182-1.106h-5.082V-9.744H-50.05Zm10.528-7.266c-2.142,0-3.346,1.624-3.346,3.724,0,2.142,1.232,3.71,3.262,3.71,2.17,0,3.346-1.68,3.346-3.738C-36.26-5.8-37.548-7.266-39.522-7.266Zm-.056,1.022c1.33,0,2.058,1.106,2.058,2.7s-.742,2.688-2.03,2.688-2.058-1.134-2.058-2.7C-41.608-5.166-40.908-6.244-39.578-6.244ZM-34.664,0h1.232V-3.752c0-1.428.532-2.45,1.876-2.45,1.078,0,1.5.714,1.5,1.792V0h1.232V-4.564c0-1.89-1.036-2.7-2.38-2.7a2.227,2.227,0,0,0-2.226,1.33A10.761,10.761,0,0,0-33.488-7.1h-1.19c.014.546.014,1.176.014,1.792Zm13.776-5.054c0-.672.014-1.638.014-2.044h-1.148c-.014.14-.056.616-.07.938-.154-.476-.728-1.106-2.086-1.106-1.708,0-3.066,1.414-3.066,3.724,0,2.086,1.19,3.514,2.94,3.514a2.175,2.175,0,0,0,2.212-1.246V-.7c0,1.624-.392,2.646-2,2.646a1.626,1.626,0,0,1-1.75-1.19H-27.09c.126.966.784,2.17,2.94,2.17,2.324,0,3.262-1.288,3.262-3.57ZM-25.97-3.6c0-1.526.672-2.632,1.988-2.632,1.512,0,1.932.952,1.932,2.548,0,1.568-.448,2.6-1.974,2.6C-25.186-1.078-25.97-2.1-25.97-3.6ZM-18.8-2.38c0,.784,0,1.582-.014,2.38h1.176a7.624,7.624,0,0,0,.056-.938A2.07,2.07,0,0,0-15.5.168c2,0,3.094-1.708,3.094-3.864,0-2.1-1.12-3.57-2.912-3.57A2.312,2.312,0,0,0-17.57-6.09v-4.186H-18.8Zm5.138-1.288c0,1.722-.742,2.8-2,2.8-1.5,0-1.974-1.176-1.974-2.66,0-1.694.532-2.7,2.044-2.7C-14.364-6.23-13.664-5.208-13.664-3.668Zm5.782-3.6c-2.142,0-3.346,1.624-3.346,3.724C-11.228-1.4-10,.168-7.966.168-5.8.168-4.62-1.512-4.62-3.57-4.62-5.8-5.908-7.266-7.882-7.266Zm-.056,1.022c1.33,0,2.058,1.106,2.058,2.7S-6.622-.854-7.91-.854s-2.058-1.134-2.058-2.7C-9.968-5.166-9.268-6.244-7.938-6.244Zm10.206,1.3c0-1.61-.966-2.324-2.7-2.324-2.044,0-2.646,1.12-2.744,2.1h1.19C-1.862-5.712-1.652-6.3-.476-6.3c1.33,0,1.526.756,1.526,1.386v.6h-1.2c-2.114,0-3.36.728-3.36,2.31A2.15,2.15,0,0,0-1.12.168a2.262,2.262,0,0,0,2.2-1.092A3.661,3.661,0,0,0,1.19,0H2.366a11.013,11.013,0,0,1-.1-1.554Zm-1.2,1.708C1.064-1.946.84-.8-.868-.8A1.245,1.245,0,0,1-2.254-2.072c0-.994.756-1.386,2.17-1.386H1.064ZM4.382,0H5.614V-3.444c0-1.792.924-2.562,2.38-2.6V-7.266a2.481,2.481,0,0,0-2.38,1.61c0-.686-.028-1.246-.042-1.442h-1.2c0,.378.014.938.014,1.932Zm9.492-10.276v3.92c-.182-.406-.742-.91-2-.91-1.96,0-3.178,1.61-3.178,3.794,0,2.156,1.12,3.64,2.954,3.64a2.214,2.214,0,0,0,2.226-1.176A6.964,6.964,0,0,0,13.944,0H15.12c-.014-.686-.014-1.344-.014-2v-8.274ZM9.968-3.514c0-1.722.77-2.716,2.03-2.716,1.6,0,1.932.994,1.932,2.576,0,1.554-.378,2.786-2.03,2.786C10.78-.868,9.968-1.806,9.968-3.514ZM20.972,0H24.4c2.828,0,4.634-2.086,4.634-4.97a4.415,4.415,0,0,0-4.592-4.774H20.972ZM22.26-8.638H24.3c2.38,0,3.374,1.778,3.374,3.7,0,2.2-1.078,3.85-3.374,3.85H22.26ZM36.568-3.332c.014-.182.014-.364.014-.588,0-1.512-.742-3.346-3.038-3.346-2.156,0-3.22,1.68-3.22,3.794,0,1.82.91,3.64,3.136,3.64a2.9,2.9,0,0,0,3-2.128H35.21A1.635,1.635,0,0,1,33.5-.854c-1.2,0-1.932-1.036-1.946-2.478ZM31.6-4.186C31.724-5.432,32.27-6.3,33.53-6.3c1.2,0,1.792.938,1.806,2.114ZM42.616-2.17A1.689,1.689,0,0,1,40.922-.854C39.69-.854,39-1.932,39-3.556s.714-2.688,1.96-2.688A1.573,1.573,0,0,1,42.616-4.9h1.218a2.641,2.641,0,0,0-2.842-2.366c-2.114,0-3.248,1.75-3.248,3.752,0,2.282,1.2,3.682,3.164,3.682A2.809,2.809,0,0,0,43.834-2.17Zm3.934-8.106H45.318V0H46.55V-2.52l1.064-1.022L49.994,0h1.442L48.454-4.34,51.128-7.1h-1.47c-.952,1.05-2.52,2.688-3.108,3.388Z" transform="translate(3549 -6136.938)"/>
  <path id="Path_1534" data-name="Path 1534" class="cls-1" d="M8.544-23.472c.336-1.536,1.1-3.36,4.32-3.36,2.736,0,4.032,1.488,4.032,3.648,0,2.64-1.3,3.7-4.416,3.7H9.936v5.28h2.88c3.648,0,5.184,1.776,5.184,4.7,0,2.784-1.584,4.8-4.752,4.8C9.984-4.7,8.5-6.528,8.064-8.688H1.392C1.68-4.512,4.56.576,13.056.576c9.072,0,11.808-5.424,11.808-9.984a7.468,7.468,0,0,0-5.136-7.584v-.144a6.691,6.691,0,0,0,3.936-6.432c0-4.464-3.264-8.592-10.56-8.592-7.92,0-10.656,4.8-11.088,8.688ZM40.512.576c7.2,0,12.384-3.36,12.384-9.888a8.259,8.259,0,0,0-5.136-7.68,6.269,6.269,0,0,0,4.032-6.336c0-5.472-4.272-8.832-10.8-8.832C33.888-32.16,30-28.608,30-23.232a7.12,7.12,0,0,0,3.888,6.576A8.392,8.392,0,0,0,28.7-9.072C28.7-2.832,34.032.576,40.512.576Zm.432-5.328c-3.216,0-5.328-1.872-5.328-4.7,0-2.64,1.776-4.512,5.184-4.512,3.072,0,5.232,1.44,5.232,4.56C46.032-6.192,43.872-4.752,40.944-4.752Zm-.1-22.128c2.832,0,4.416,1.488,4.416,3.888,0,2.5-1.536,3.552-4.32,3.552-2.928,0-4.464-1.44-4.464-3.552C36.48-25.488,37.968-26.88,40.848-26.88Z" transform="translate(3504 -6164)"/>
  <path id="Path_1535" data-name="Path 1535" class="cls-1" d="M.7,0H2.288V-5.7H.7ZM2.288-6.622V-8.03H.7v1.408ZM3.707,0H5.291V-3.168c0-1.012.374-1.386,1.045-1.386.7,0,.913.462.913,1.111V0H8.822V-3.619c0-1.43-.737-2.211-1.881-2.211a1.732,1.732,0,0,0-1.65.858c-.011-.176-.033-.572-.066-.726H3.7c.011.429.011.957.011,1.441Zm9.9-1.837a.97.97,0,0,1-.979.748c-.682,0-1.122-.55-1.122-1.771,0-1.1.407-1.727,1.133-1.727a.89.89,0,0,1,.979.781h1.529A2.242,2.242,0,0,0,12.672-5.83,2.765,2.765,0,0,0,9.911-2.8c0,1.716.913,2.937,2.684,2.937a2.356,2.356,0,0,0,2.552-1.969ZM16.148-8.03V0h1.584V-3.025c0-.869.165-1.529,1.045-1.529.66,0,.924.4.924,1.133V0h1.562V-3.652c0-1.54-.847-2.178-1.9-2.178a1.8,1.8,0,0,0-1.628.814V-8.03Z" transform="translate(3565 -6164)"/>
  <path id="Path_1486" data-name="Path 1486" class="cls-1" d="M42.566,18.953a1.709,1.709,0,0,0-1.586-.264,67.252,67.252,0,0,1-38.689,0,1.709,1.709,0,0,0-1.586.264A1.84,1.84,0,0,0,0,20.363V27.5a1.7,1.7,0,0,0,1.322,1.674A76.152,76.152,0,0,0,21.68,32a76.152,76.152,0,0,0,20.358-2.82A1.7,1.7,0,0,0,43.359,27.5V20.363A2.29,2.29,0,0,0,42.566,18.953Zm-2.82,7.227a70.11,70.11,0,0,1-36.221,0V22.654a72.046,72.046,0,0,0,36.221,0Z" transform="translate(3696 -6193.195)"/>
  <path id="Path_1487" data-name="Path 1487" class="cls-1" d="M16.586,12.426l5.993,4.054h.088l.088.088a.308.308,0,0,1,.176.088c.088,0,.088,0,.176.088a3.817,3.817,0,0,1,.441.088c.088,0,.353,0,.441-.088.088,0,.088,0,.176-.088.088,0,.176,0,.176-.088a.086.086,0,0,0,.088-.088h.088l5.993-4.054a1.772,1.772,0,1,0-2.027-2.908l-3.261,2.2V1.763a1.763,1.763,0,1,0-3.525,0v9.959l-3.261-2.2a1.807,1.807,0,0,0-2.468.441A1.854,1.854,0,0,0,16.586,12.426Z" transform="translate(3694.132 -6190.987)"/>
</svg>
