<svg id="Group_2882" data-name="Group 2882" xmlns="http://www.w3.org/2000/svg" viewBox="279.708 -2317.5 435.408 82.488">
  <defs>
    <style>
      .cls-1 {
        fill: #fff;
      }

      .cls-2 {
        fill: none;
        stroke: #fff;
        opacity: 0.5;
      }
    </style>
  </defs>
  <path id="Path_1578" data-name="Path 1578" class="cls-1" d="M-36.064,0V-2.366H-35l.126-1.064h-1.19V-9.212H-37.38l-4.186,5.726v1.12h4.326V0ZM-37.24-3.43h-3.122c.994-1.372,2.786-3.836,3.15-4.55-.014.6-.028,1.512-.028,2.226Zm10.808-.854c1.75,0,2.142.6,2.142,1.988v.2A6.518,6.518,0,0,0-24.122,0h1.26A6.668,6.668,0,0,1-23-1.932v-.42c0-1.68-.686-2.282-1.484-2.492a2.22,2.22,0,0,0,1.666-2.3c0-1.512-1.064-2.6-3.066-2.6h-3.808V0h1.274V-4.284ZM-28.42-8.652h2.268c1.316,0,1.988.588,1.988,1.624,0,1.092-.644,1.652-2.142,1.652H-28.42ZM-20.944,0h1.232V-7.1h-1.232Zm1.232-8.75v-1.526h-1.232V-8.75Zm6.762-1.526v3.92c-.182-.406-.742-.91-2-.91-1.96,0-3.178,1.61-3.178,3.794,0,2.156,1.12,3.64,2.954,3.64A2.214,2.214,0,0,0-12.95-1.008,6.964,6.964,0,0,0-12.88,0H-11.7c-.014-.686-.014-1.344-.014-2v-8.274Zm-3.906,6.762c0-1.722.77-2.716,2.03-2.716,1.6,0,1.932.994,1.932,2.576,0,1.554-.378,2.786-2.03,2.786C-16.044-.868-16.856-1.806-16.856-3.514Zm12.964.182c.014-.182.014-.364.014-.588,0-1.512-.742-3.346-3.038-3.346-2.156,0-3.22,1.68-3.22,3.794,0,1.82.91,3.64,3.136,3.64A2.9,2.9,0,0,0-4-1.96H-5.25A1.635,1.635,0,0,1-6.958-.854c-1.2,0-1.932-1.036-1.946-2.478Zm-4.97-.854C-8.736-5.432-8.19-6.3-6.93-6.3c1.2,0,1.792.938,1.806,2.114ZM9.786,0h1.26V-9.744H9.184C8.036-6.79,6.44-2.52,6.2-1.582H6.188c-.336-1.232-1.694-5.138-2.8-8.162H1.47V0H2.688V-3.878c0-1.68-.042-3.836-.112-4.97h.042C3.052-7.182,4.69-2.492,5.53,0H6.692C7.812-3.066,9.38-7.238,9.8-8.82h.056c-.042,1.022-.07,2.856-.07,4.676Zm6.342-7.266c-2.142,0-3.346,1.624-3.346,3.724,0,2.142,1.232,3.71,3.262,3.71,2.17,0,3.346-1.68,3.346-3.738C19.39-5.8,18.1-7.266,16.128-7.266Zm-.056,1.022c1.33,0,2.058,1.106,2.058,2.7S17.388-.854,16.1-.854s-2.058-1.134-2.058-2.7C14.042-5.166,14.742-6.244,16.072-6.244Zm9.674-4.032v3.92c-.182-.406-.742-.91-2-.91-1.96,0-3.178,1.61-3.178,3.794,0,2.156,1.12,3.64,2.954,3.64a2.214,2.214,0,0,0,2.226-1.176A6.964,6.964,0,0,0,25.816,0h1.176c-.014-.686-.014-1.344-.014-2v-8.274ZM21.84-3.514c0-1.722.77-2.716,2.03-2.716,1.6,0,1.932.994,1.932,2.576,0,1.554-.378,2.786-2.03,2.786C22.652-.868,21.84-1.806,21.84-3.514ZM34.8-3.332c.014-.182.014-.364.014-.588,0-1.512-.742-3.346-3.038-3.346-2.156,0-3.22,1.68-3.22,3.794,0,1.82.91,3.64,3.136,3.64a2.9,2.9,0,0,0,3-2.128H33.446A1.635,1.635,0,0,1,31.738-.854c-1.2,0-1.932-1.036-1.946-2.478Zm-4.97-.854c.126-1.246.672-2.114,1.932-2.114,1.2,0,1.792.938,1.806,2.114ZM35.868-2.03c.182,1.274,1.092,2.2,2.926,2.2,1.764,0,2.758-.91,2.758-2.156,0-1.05-.434-1.764-2.59-2.282-1.3-.308-1.6-.574-1.6-1.106,0-.462.308-.938,1.3-.938a1.416,1.416,0,0,1,1.54,1.092h1.176c-.084-.98-.84-2.044-2.674-2.044s-2.562.994-2.562,1.988c0,.966.42,1.6,2.45,2.086,1.358.322,1.68.63,1.68,1.3,0,.644-.406,1.092-1.442,1.092A1.6,1.6,0,0,1,37.1-2.03Z" transform="translate(494 -2253.938)"/>
  <path id="Path_1579" data-name="Path 1579" class="cls-1" d="M-38.136,0h3.822c1.848,0,3.248-1.022,3.248-2.856A2.386,2.386,0,0,0-32.788-5.18a2.146,2.146,0,0,0,1.4-2.128c0-1.344-.952-2.436-3.01-2.436h-3.738Zm1.26-5.684V-8.666h2.422c1.148,0,1.764.6,1.764,1.47,0,.952-.546,1.512-1.96,1.512Zm0,1.064h2.156c1.652,0,2.324.714,2.324,1.764,0,1.218-.854,1.792-2.072,1.792h-2.408Zm10.43-2.646c-2.142,0-3.346,1.624-3.346,3.724,0,2.142,1.232,3.71,3.262,3.71,2.17,0,3.346-1.68,3.346-3.738C-23.184-5.8-24.472-7.266-26.446-7.266ZM-26.5-6.244c1.33,0,2.058,1.106,2.058,2.7s-.742,2.688-2.03,2.688-2.058-1.134-2.058-2.7C-28.532-5.166-27.832-6.244-26.5-6.244Zm7.84-1.022c-2.142,0-3.346,1.624-3.346,3.724,0,2.142,1.232,3.71,3.262,3.71,2.17,0,3.346-1.68,3.346-3.738C-15.4-5.8-16.688-7.266-18.662-7.266Zm-.056,1.022c1.33,0,2.058,1.106,2.058,2.7S-17.4-.854-18.69-.854s-2.058-1.134-2.058-2.7C-20.748-5.166-20.048-6.244-18.718-6.244Zm4.4,4.214C-14.14-.756-13.23.168-11.4.168c1.764,0,2.758-.91,2.758-2.156,0-1.05-.434-1.764-2.59-2.282-1.3-.308-1.6-.574-1.6-1.106,0-.462.308-.938,1.3-.938a1.416,1.416,0,0,1,1.54,1.092h1.176c-.084-.98-.84-2.044-2.674-2.044s-2.562.994-2.562,1.988c0,.966.42,1.6,2.45,2.086,1.358.322,1.68.63,1.68,1.3,0,.644-.406,1.092-1.442,1.092A1.6,1.6,0,0,1-13.09-2.03ZM-8.036-6.1H-6.8v4.452C-6.8-.476-6.328.1-5.222.1A3.267,3.267,0,0,0-4.158-.028V-.952A3.248,3.248,0,0,1-4.774-.9c-.644,0-.812-.35-.812-1.05V-6.1h1.568V-7.1H-5.586V-9.2H-6.8v2.1H-8.036ZM2.982-3.332C3-3.514,3-3.7,3-3.92,3-5.432,2.254-7.266-.042-7.266c-2.156,0-3.22,1.68-3.22,3.794,0,1.82.91,3.64,3.136,3.64a2.9,2.9,0,0,0,3-2.128H1.624A1.635,1.635,0,0,1-.084-.854c-1.2,0-1.932-1.036-1.946-2.478Zm-4.97-.854C-1.862-5.432-1.316-6.3-.056-6.3c1.2,0,1.792.938,1.806,2.114Zm11.312-6.09v3.92c-.182-.406-.742-.91-2-.91-1.96,0-3.178,1.61-3.178,3.794,0,2.156,1.12,3.64,2.954,3.64A2.214,2.214,0,0,0,9.324-1.008,6.964,6.964,0,0,0,9.394,0H10.57c-.014-.686-.014-1.344-.014-2v-8.274ZM5.418-3.514c0-1.722.77-2.716,2.03-2.716,1.6,0,1.932.994,1.932,2.576C9.38-2.1,9-.868,7.35-.868,6.23-.868,5.418-1.806,5.418-3.514ZM16.422,0h3.822c1.848,0,3.248-1.022,3.248-2.856A2.386,2.386,0,0,0,21.77-5.18a2.146,2.146,0,0,0,1.4-2.128c0-1.344-.952-2.436-3.01-2.436H16.422Zm1.26-5.684V-8.666H20.1c1.148,0,1.764.6,1.764,1.47,0,.952-.546,1.512-1.96,1.512Zm0,1.064h2.156c1.652,0,2.324.714,2.324,1.764,0,1.218-.854,1.792-2.072,1.792H17.682ZM31.01-3.332c.014-.182.014-.364.014-.588,0-1.512-.742-3.346-3.038-3.346-2.156,0-3.22,1.68-3.22,3.794,0,1.82.91,3.64,3.136,3.64a2.9,2.9,0,0,0,3-2.128H29.652A1.635,1.635,0,0,1,27.944-.854c-1.2,0-1.932-1.036-1.946-2.478Zm-4.97-.854c.126-1.246.672-2.114,1.932-2.114,1.2,0,1.792.938,1.806,2.114ZM33.866,0V-10.276H32.634V0ZM35.1-6.1H36.33v4.452c0,1.176.476,1.75,1.582,1.75a3.267,3.267,0,0,0,1.064-.126V-.952A3.248,3.248,0,0,1,38.36-.9c-.644,0-.812-.35-.812-1.05V-6.1h1.568V-7.1H37.548V-9.2H36.33v2.1H35.1ZM-38.472,16h3.43c2.828,0,4.634-2.086,4.634-4.97A4.415,4.415,0,0,0-35,6.256h-3.472Zm1.288-8.638h2.044c2.38,0,3.374,1.778,3.374,3.7,0,2.2-1.078,3.85-3.374,3.85h-2.044ZM-28.616,16h1.232V12.556c0-1.792.924-2.562,2.38-2.6V8.734a2.481,2.481,0,0,0-2.38,1.61c0-.686-.028-1.246-.042-1.442h-1.2c0,.378.014.938.014,1.932Zm4.83,0h1.232V8.9h-1.232Zm1.232-8.75V5.724h-1.232V7.25Zm1.26,1.652,2.478,7.1h1.358l2.6-7.1H-16.1c-1.064,3.038-1.82,5.166-1.988,5.95H-18.1c-.224-.882-.924-3.052-1.876-5.95Zm13.342,3.766c.014-.182.014-.364.014-.588,0-1.512-.742-3.346-3.038-3.346-2.156,0-3.22,1.68-3.22,3.794,0,1.82.91,3.64,3.136,3.64a2.9,2.9,0,0,0,3-2.128H-9.31a1.635,1.635,0,0,1-1.708,1.106c-1.2,0-1.932-1.036-1.946-2.478Zm-4.97-.854C-12.8,10.568-12.25,9.7-10.99,9.7c1.2,0,1.792.938,1.806,2.114Zm9.464,2.156c.182,1.274,1.092,2.2,2.926,2.2,1.764,0,2.758-.91,2.758-2.156,0-1.05-.434-1.764-2.59-2.282-1.3-.308-1.6-.574-1.6-1.106,0-.462.308-.938,1.3-.938a1.416,1.416,0,0,1,1.54,1.092H2.058c-.084-.98-.84-2.044-2.674-2.044s-2.562.994-2.562,1.988c0,.966.42,1.6,2.45,2.086,1.358.322,1.68.63,1.68,1.3C.952,14.754.546,15.2-.49,15.2A1.6,1.6,0,0,1-2.226,13.97ZM2.954,8.9l2.66,7.378c-.42,1.176-.756,1.568-1.652,1.568-.2,0-.406-.014-.588-.028v1.064c.28.028.546.042.77.042,1.442,0,1.988-.518,2.7-2.6L9.394,8.9H8.162C7,12.472,6.5,14.1,6.272,14.908H6.258c-.2-.728-.826-2.6-1.974-6.006ZM10.08,13.97c.182,1.274,1.092,2.2,2.926,2.2,1.764,0,2.758-.91,2.758-2.156,0-1.05-.434-1.764-2.59-2.282-1.3-.308-1.6-.574-1.6-1.106,0-.462.308-.938,1.3-.938a1.416,1.416,0,0,1,1.54,1.092H15.6c-.084-.98-.84-2.044-2.674-2.044s-2.562.994-2.562,1.988c0,.966.42,1.6,2.45,2.086,1.358.322,1.68.63,1.68,1.3,0,.644-.406,1.092-1.442,1.092a1.6,1.6,0,0,1-1.736-1.232ZM16.366,9.9H17.6v4.452c0,1.176.476,1.75,1.582,1.75a3.267,3.267,0,0,0,1.064-.126v-.924a3.248,3.248,0,0,1-.616.056c-.644,0-.812-.35-.812-1.05V9.9h1.568V8.9H18.816V6.8H17.6V8.9H16.366Zm11.018,2.772c.014-.182.014-.364.014-.588,0-1.512-.742-3.346-3.038-3.346-2.156,0-3.22,1.68-3.22,3.794,0,1.82.91,3.64,3.136,3.64a2.9,2.9,0,0,0,3-2.128H26.026a1.635,1.635,0,0,1-1.708,1.106c-1.2,0-1.932-1.036-1.946-2.478Zm-4.97-.854c.126-1.246.672-2.114,1.932-2.114,1.2,0,1.792.938,1.806,2.114ZM28.966,16h1.218V12.066c0-1.344.546-2.268,1.68-2.268s1.372.812,1.372,1.722V16h1.2V11.926c0-1.26.5-2.128,1.666-2.128,1.106,0,1.4.868,1.4,1.68V16h1.2V11.338c0-1.918-1.078-2.6-2.24-2.6a2.416,2.416,0,0,0-2.254,1.274,1.956,1.956,0,0,0-1.974-1.274,2.193,2.193,0,0,0-2.058,1.26c0-.364-.028-.882-.056-1.092H28.952c.014.574.014,1.218.014,1.834Z" transform="translate(676 -2253.938)"/>
  <path id="Path_1580" data-name="Path 1580" class="cls-1" d="M-24.976,0h1.26V-9.744h-1.862C-26.726-6.79-28.322-2.52-28.56-1.582h-.014c-.336-1.232-1.694-5.138-2.8-8.162h-1.918V0h1.218V-3.878c0-1.68-.042-3.836-.112-4.97h.042C-31.71-7.182-30.072-2.492-29.232,0h1.162c1.12-3.066,2.688-7.238,3.108-8.82h.056c-.042,1.022-.07,2.856-.07,4.676Zm3.528,0h1.232V-7.1h-1.232Zm1.232-8.75v-1.526h-1.232V-8.75ZM-16.9,0V-10.276H-18.13V0Zm7.826-3.332c.014-.182.014-.364.014-.588,0-1.512-.742-3.346-3.038-3.346-2.156,0-3.22,1.68-3.22,3.794,0,1.82.91,3.64,3.136,3.64a2.9,2.9,0,0,0,3-2.128H-10.43A1.635,1.635,0,0,1-12.138-.854c-1.2,0-1.932-1.036-1.946-2.478Zm-4.97-.854c.126-1.246.672-2.114,1.932-2.114,1.2,0,1.792.938,1.806,2.114Zm13.594-.1c1.75,0,2.142.6,2.142,1.988v.2A6.518,6.518,0,0,0,1.862,0h1.26a6.668,6.668,0,0,1-.14-1.932v-.42c0-1.68-.686-2.282-1.484-2.492a2.22,2.22,0,0,0,1.666-2.3c0-1.512-1.064-2.6-3.066-2.6H-3.71V0h1.274V-4.284ZM-2.436-8.652H-.168c1.316,0,1.988.588,1.988,1.624,0,1.092-.644,1.652-2.142,1.652H-2.436Zm12.768,3.71c0-1.61-.966-2.324-2.7-2.324-2.044,0-2.646,1.12-2.744,2.1h1.19C6.2-5.712,6.412-6.3,7.588-6.3c1.33,0,1.526.756,1.526,1.386v.6H7.91C5.8-4.312,4.55-3.584,4.55-2A2.15,2.15,0,0,0,6.944.168a2.262,2.262,0,0,0,2.2-1.092A3.661,3.661,0,0,0,9.254,0H10.43a11.013,11.013,0,0,1-.1-1.554Zm-1.2,1.708C9.128-1.946,8.9-.8,7.2-.8A1.245,1.245,0,0,1,5.81-2.072c0-.994.756-1.386,2.17-1.386H9.128ZM12.446,0h1.232V-3.752c0-1.428.532-2.45,1.876-2.45,1.078,0,1.5.714,1.5,1.792V0h1.232V-4.564c0-1.89-1.036-2.7-2.38-2.7a2.227,2.227,0,0,0-2.226,1.33A10.761,10.761,0,0,0,13.622-7.1h-1.19c.014.546.014,1.176.014,1.792ZM26.222-5.054c0-.672.014-1.638.014-2.044H25.088c-.014.14-.056.616-.07.938-.154-.476-.728-1.106-2.086-1.106-1.708,0-3.066,1.414-3.066,3.724,0,2.086,1.19,3.514,2.94,3.514a2.175,2.175,0,0,0,2.212-1.246V-.7c0,1.624-.392,2.646-2,2.646a1.626,1.626,0,0,1-1.75-1.19H20.02c.126.966.784,2.17,2.94,2.17,2.324,0,3.262-1.288,3.262-3.57ZM21.14-3.6c0-1.526.672-2.632,1.988-2.632,1.512,0,1.932.952,1.932,2.548,0,1.568-.448,2.6-1.974,2.6C21.924-1.078,21.14-2.1,21.14-3.6Zm12.908.266c.014-.182.014-.364.014-.588,0-1.512-.742-3.346-3.038-3.346-2.156,0-3.22,1.68-3.22,3.794,0,1.82.91,3.64,3.136,3.64a2.9,2.9,0,0,0,3-2.128H32.69A1.635,1.635,0,0,1,30.982-.854c-1.2,0-1.932-1.036-1.946-2.478Zm-4.97-.854C29.2-5.432,29.75-6.3,31.01-6.3c1.2,0,1.792.938,1.806,2.114Z" transform="translate(313 -2253.938)"/>
  <path id="Path_1581" data-name="Path 1581" class="cls-1" d="M14.784,0V-31.632h-4.9A14.559,14.559,0,0,1,2.064-27.36v5.136a21.163,21.163,0,0,0,5.712-1.392V0ZM41.616,0V-7.1h3.168l.672-5.568h-3.84V-31.584H34.128L20.976-13.1v6H35.232V0ZM35.232-12.672H27.024c2.976-4.272,7.1-10.272,8.352-12.912-.144,1.968-.144,3.888-.144,7.3Z" transform="translate(291 -2281)"/>
  <path id="Path_1582" data-name="Path 1582" class="cls-2" d="M0,52V0" transform="translate(401.5 -2305.5)"/>
  <path id="Path_1583" data-name="Path 1583" class="cls-2" d="M0,52V0" transform="translate(588.5 -2305.5)"/>
  <path id="Path_1460" data-name="Path 1460" class="cls-1" d="M20.873,3.1A3.22,3.22,0,0,0,17.6,6.373a3.273,3.273,0,1,0,6.545,0A3.22,3.22,0,0,0,20.873,3.1Zm0,4.98a1.565,1.565,0,1,1,1.565-1.565A1.493,1.493,0,0,1,20.873,8.08Z" transform="translate(665.443 -2304.689)"/>
  <path id="Path_1458" data-name="Path 1458" class="cls-1" d="M16.76,12.226l.711-.569-1.85-1.992-.711.569a8.687,8.687,0,0,0-2.846-1.281V8.1h-2.7v.854a7.335,7.335,0,0,0-2.846,1.281L5.8,9.665l-1.85,1.992.854.569a6.708,6.708,0,0,0-.854,2.134H3.1v2.7h.854a10.663,10.663,0,0,0,.711,2.277l-.711.569L5.8,21.9l.569-.569a5.727,5.727,0,0,0,2.846,1.281v1h2.7v-.854a7.335,7.335,0,0,0,2.846-1.281l.569.569,1.85-1.992-.427-.711a6.708,6.708,0,0,0,.854-2.134h.854V14.5h-.854A6.287,6.287,0,0,0,16.76,12.226ZM14.2,18.63l-.285.285A4.123,4.123,0,0,1,10.5,20.195a4.422,4.422,0,0,1-4.126-3.984,4.339,4.339,0,0,1,4.838-4.553,4.239,4.239,0,0,1,3.842,3.7A4.584,4.584,0,0,1,14.2,18.63Z" transform="translate(659.312 -2302.574)"/>
  <path id="Path_1459" data-name="Path 1459" class="cls-1" d="M36,7.684A7.652,7.652,0,0,0,28.316,0,6.647,6.647,0,0,0,25.9.427h0a6.937,6.937,0,0,0-1,.427L8.68,7.684a19,19,0,0,0-2.561,1A12.375,12.375,0,0,0,0,19.209a12.095,12.095,0,0,0,21.771,7.257L33.723,13.233l.711-.711h0A8.519,8.519,0,0,0,36,7.684Zm-2.561,0a4.466,4.466,0,0,1-1,2.988L19.921,24.617a13.346,13.346,0,0,1-2.277,1.992A10.26,10.26,0,0,1,12.237,28.6a9.475,9.475,0,0,1-9.391-9.391,9.625,9.625,0,0,1,4.7-8.111L26.893,2.846a5.115,5.115,0,0,1,1.565-.285A5.267,5.267,0,0,1,33.439,7.684Z" transform="translate(658 -2306)"/>
  <path id="Path_1455" data-name="Path 1455" class="cls-1" d="M17.9,18.5H31.3a1.8,1.8,0,0,1,0,3.6H17.9a1.793,1.793,0,0,1-1.8-1.8A1.733,1.733,0,0,1,17.9,18.5Z" transform="translate(498.6 -2313.5) rotate(90)"/>
  <path id="Path_1456" data-name="Path 1456" class="cls-1" d="M8.9,9.3H31.2a1.8,1.8,0,0,1,0,3.6H8.9a1.8,1.8,0,1,1,0-3.6Z" transform="translate(498.6 -2313.5) rotate(90)"/>
  <path id="Path_1457" data-name="Path 1457" class="cls-1" d="M1.8,0H31.2a1.8,1.8,0,1,1,0,3.6H1.8A1.733,1.733,0,0,1,0,1.8,1.793,1.793,0,0,1,1.8,0Z" transform="translate(498.6 -2313.5) rotate(90)"/>
  <path id="Path_1457-2" data-name="Path 1457" class="cls-1" d="M2.018,0H34.982A1.911,1.911,0,0,1,37,1.8a1.911,1.911,0,0,1-2.018,1.8H2.018A1.849,1.849,0,0,1,0,1.8,1.911,1.911,0,0,1,2.018,0Z" transform="translate(507.6 -2317.5) rotate(90)"/>
</svg>
