<svg id="Group_2880" data-name="Group 2880" xmlns="http://www.w3.org/2000/svg" viewBox="230.308 -7566.545 495.528 53.045">
  <defs>
    <style>
      .cls-1 {
        fill: #fff;
      }

      .cls-2 {
        fill: none;
        stroke: #fff;
        opacity: 0.5;
      }
    </style>
  </defs>
  <path id="Path_1540" data-name="Path 1540" class="cls-1" d="M.574-2.716c.21,1.5,1.26,2.842,3.71,2.842,2.38,0,3.542-1.232,3.542-2.8,0-1.26-.49-2.338-3.262-3.01C2.856-6.1,2.31-6.468,2.31-7.378s.658-1.456,1.848-1.456A1.892,1.892,0,0,1,6.3-7.266H7.616C7.476-8.54,6.524-9.884,4.2-9.884,2.03-9.884.966-8.708.966-7.252c0,1.372.8,2.156,3.094,2.716,1.946.462,2.422,1.008,2.422,1.988,0,.924-.6,1.638-2.114,1.638A2.227,2.227,0,0,1,1.89-2.716ZM15.12-7.1H13.888v3.7c0,1.778-.5,2.506-1.806,2.506-1.176,0-1.47-.868-1.47-1.792V-7.1H9.394v4.662c0,2,1.148,2.6,2.352,2.6a2.1,2.1,0,0,0,2.142-1.232c.014.448.028.882.056,1.064h1.19c0-.42-.014-1.372-.014-2.072Zm3.318,9.884V-.882A2.157,2.157,0,0,0,20.51.168c1.722,0,3.08-1.358,3.08-3.906,0-2.156-1.19-3.528-2.828-3.528a2.443,2.443,0,0,0-2.324,1.288c0-.462-.014-.882-.042-1.12h-1.19c.014.546.014,1.148.014,1.736V2.786ZM22.33-3.682c0,1.75-.686,2.814-1.988,2.814-1.484,0-1.96-1.022-1.96-2.688,0-1.736.588-2.66,2.058-2.66C21.644-6.216,22.33-5.194,22.33-3.682Zm8.694.35c.014-.182.014-.364.014-.588,0-1.512-.742-3.346-3.038-3.346-2.156,0-3.22,1.68-3.22,3.794,0,1.82.91,3.64,3.136,3.64a2.9,2.9,0,0,0,3-2.128H29.666A1.635,1.635,0,0,1,27.958-.854c-1.2,0-1.932-1.036-1.946-2.478Zm-4.97-.854c.126-1.246.672-2.114,1.932-2.114,1.2,0,1.792.938,1.806,2.114ZM32.606,0h1.232V-3.444c0-1.792.924-2.562,2.38-2.6V-7.266a2.481,2.481,0,0,0-2.38,1.61c0-.686-.028-1.246-.042-1.442h-1.2c0,.378.014.938.014,1.932Zm8.708,0h1.274V-4.368H47.25V-5.474H42.588V-8.638h4.984V-9.744H41.314Zm8.792,0V-10.276H48.874V0Zm7.826-3.332c.014-.182.014-.364.014-.588,0-1.512-.742-3.346-3.038-3.346-2.156,0-3.22,1.68-3.22,3.794,0,1.82.91,3.64,3.136,3.64a2.9,2.9,0,0,0,3-2.128H56.574A1.635,1.635,0,0,1,54.866-.854c-1.2,0-1.932-1.036-1.946-2.478Zm-4.97-.854c.126-1.246.672-2.114,1.932-2.114,1.2,0,1.792.938,1.806,2.114ZM58.6-7.1l2.31,3.556L58.534,0h1.372c.924-1.456,1.5-2.408,1.736-2.8h.014c.28.462.882,1.414,1.75,2.8H64.82L62.4-3.682,64.792-7.1H63.42c-.84,1.274-1.428,2.2-1.736,2.646H61.67C61.418-4.844,61-5.516,59.99-7.1ZM76.09-2.758A2.5,2.5,0,0,1,73.57-.952c-2.254,0-3.08-2.016-3.08-3.934,0-1.96.868-3.92,3.024-3.92A2.458,2.458,0,0,1,76.1-6.944h1.288a3.556,3.556,0,0,0-3.836-2.94c-2.954,0-4.424,2.394-4.424,5.04,0,2.758,1.47,4.97,4.382,4.97a3.7,3.7,0,0,0,3.878-2.884Zm5.8-4.508c-2.142,0-3.346,1.624-3.346,3.724C78.54-1.4,79.772.168,81.8.168c2.17,0,3.346-1.68,3.346-3.738C85.148-5.8,83.86-7.266,81.886-7.266ZM81.83-6.244c1.33,0,2.058,1.106,2.058,2.7s-.742,2.688-2.03,2.688S79.8-1.988,79.8-3.556C79.8-5.166,80.5-6.244,81.83-6.244ZM86.744,0h1.232V-3.752c0-1.428.532-2.45,1.876-2.45,1.078,0,1.5.714,1.5,1.792V0h1.232V-4.564c0-1.89-1.036-2.7-2.38-2.7a2.227,2.227,0,0,0-2.226,1.33A10.761,10.761,0,0,0,87.92-7.1H86.73c.014.546.014,1.176.014,1.792Zm7.224-2.03c.182,1.274,1.092,2.2,2.926,2.2,1.764,0,2.758-.91,2.758-2.156,0-1.05-.434-1.764-2.59-2.282-1.3-.308-1.6-.574-1.6-1.106,0-.462.308-.938,1.3-.938a1.416,1.416,0,0,1,1.54,1.092h1.176c-.084-.98-.84-2.044-2.674-2.044s-2.562.994-2.562,1.988c0,.966.42,1.6,2.45,2.086,1.358.322,1.68.63,1.68,1.3,0,.644-.406,1.092-1.442,1.092A1.6,1.6,0,0,1,95.2-2.03ZM100.254-6.1h1.232v4.452c0,1.176.476,1.75,1.582,1.75a3.267,3.267,0,0,0,1.064-.126V-.952a3.248,3.248,0,0,1-.616.056c-.644,0-.812-.35-.812-1.05V-6.1h1.568V-7.1H102.7V-9.2h-1.218v2.1h-1.232ZM105.518,0h1.232V-3.444c0-1.792.924-2.562,2.38-2.6V-7.266a2.481,2.481,0,0,0-2.38,1.61c0-.686-.028-1.246-.042-1.442h-1.2c0,.378.014.938.014,1.932Zm10.514-7.1H114.8v3.7c0,1.778-.5,2.506-1.806,2.506-1.176,0-1.47-.868-1.47-1.792V-7.1h-1.218v4.662c0,2,1.148,2.6,2.352,2.6A2.1,2.1,0,0,0,114.8-1.064c.014.448.028.882.056,1.064h1.19c0-.42-.014-1.372-.014-2.072Zm6.482,4.928A1.689,1.689,0,0,1,120.82-.854c-1.232,0-1.918-1.078-1.918-2.7s.714-2.688,1.96-2.688A1.573,1.573,0,0,1,122.514-4.9h1.218a2.641,2.641,0,0,0-2.842-2.366c-2.114,0-3.248,1.75-3.248,3.752,0,2.282,1.2,3.682,3.164,3.682a2.809,2.809,0,0,0,2.926-2.338ZM124.446-6.1h1.232v4.452c0,1.176.476,1.75,1.582,1.75a3.267,3.267,0,0,0,1.064-.126V-.952a3.248,3.248,0,0,1-.616.056c-.644,0-.812-.35-.812-1.05V-6.1h1.568V-7.1H126.9V-9.2h-1.218v2.1h-1.232Zm5.32,6.1H131V-7.1h-1.232ZM131-8.75v-1.526h-1.232V-8.75Zm4.928,1.484c-2.142,0-3.346,1.624-3.346,3.724,0,2.142,1.232,3.71,3.262,3.71,2.17,0,3.346-1.68,3.346-3.738C139.188-5.8,137.9-7.266,135.926-7.266Zm-.056,1.022c1.33,0,2.058,1.106,2.058,2.7s-.742,2.688-2.03,2.688-2.058-1.134-2.058-2.7C133.84-5.166,134.54-6.244,135.87-6.244ZM140.784,0h1.232V-3.752c0-1.428.532-2.45,1.876-2.45,1.078,0,1.5.714,1.5,1.792V0h1.232V-4.564c0-1.89-1.036-2.7-2.38-2.7a2.227,2.227,0,0,0-2.226,1.33A10.76,10.76,0,0,0,141.96-7.1h-1.19c.014.546.014,1.176.014,1.792Z" transform="translate(395 -7517.938)"/>
  <path id="Path_1541" data-name="Path 1541" class="cls-1" d="M5.194,0,8.862-9.744H7.532L5.74-4.844C5.222-3.43,4.676-1.918,4.466-1.12H4.438c-.21-.9-.714-2.338-1.218-3.766L1.512-9.744H.126L3.668,0ZM9.926,0h1.232V-7.1H9.926Zm1.232-8.75v-1.526H9.926V-8.75Zm2.086,6.37c0,.784,0,1.582-.014,2.38h1.176a7.624,7.624,0,0,0,.056-.938A2.07,2.07,0,0,0,16.548.168c2,0,3.094-1.708,3.094-3.864,0-2.1-1.12-3.57-2.912-3.57A2.312,2.312,0,0,0,14.476-6.09v-4.186H13.244Zm5.138-1.288c0,1.722-.742,2.8-2,2.8-1.5,0-1.974-1.176-1.974-2.66,0-1.694.532-2.7,2.044-2.7C17.682-6.23,18.382-5.208,18.382-3.668ZM21.238,0H22.47V-3.444c0-1.792.924-2.562,2.38-2.6V-7.266a2.481,2.481,0,0,0-2.38,1.61c0-.686-.028-1.246-.042-1.442h-1.2c0,.378.014.938.014,1.932ZM31.22-4.942c0-1.61-.966-2.324-2.7-2.324-2.044,0-2.646,1.12-2.744,2.1h1.19C27.09-5.712,27.3-6.3,28.476-6.3,29.806-6.3,30-5.544,30-4.914v.6H28.8c-2.114,0-3.36.728-3.36,2.31A2.15,2.15,0,0,0,27.832.168a2.262,2.262,0,0,0,2.2-1.092A3.661,3.661,0,0,0,30.142,0h1.176a11.013,11.013,0,0,1-.1-1.554Zm-1.2,1.708c0,1.288-.224,2.436-1.932,2.436A1.245,1.245,0,0,1,26.7-2.072c0-.994.756-1.386,2.17-1.386h1.148Zm2.31-2.87h1.232v4.452c0,1.176.476,1.75,1.582,1.75A3.267,3.267,0,0,0,36.2-.028V-.952a3.248,3.248,0,0,1-.616.056c-.644,0-.812-.35-.812-1.05V-6.1h1.568V-7.1H34.776V-9.2H33.558v2.1H32.326ZM37.646,0h1.232V-7.1H37.646Zm1.232-8.75v-1.526H37.646V-8.75Zm4.928,1.484c-2.142,0-3.346,1.624-3.346,3.724,0,2.142,1.232,3.71,3.262,3.71,2.17,0,3.346-1.68,3.346-3.738C47.068-5.8,45.78-7.266,43.806-7.266ZM43.75-6.244c1.33,0,2.058,1.106,2.058,2.7s-.742,2.688-2.03,2.688-2.058-1.134-2.058-2.7C41.72-5.166,42.42-6.244,43.75-6.244ZM48.664,0H49.9V-3.752c0-1.428.532-2.45,1.876-2.45,1.078,0,1.5.714,1.5,1.792V0H54.5V-4.564c0-1.89-1.036-2.7-2.38-2.7A2.227,2.227,0,0,0,49.9-5.936,10.761,10.761,0,0,0,49.84-7.1H48.65c.014.546.014,1.176.014,1.792Zm11.7,0H63.8c2.828,0,4.634-2.086,4.634-4.97A4.415,4.415,0,0,0,63.84-9.744H60.368Zm1.288-8.638H63.7c2.38,0,3.374,1.778,3.374,3.7,0,2.2-1.078,3.85-3.374,3.85H61.656Zm13.8,3.7c0-1.61-.966-2.324-2.7-2.324-2.044,0-2.646,1.12-2.744,2.1H71.2c.126-.546.336-1.134,1.512-1.134,1.33,0,1.526.756,1.526,1.386v.6h-1.2c-2.114,0-3.36.728-3.36,2.31A2.15,2.15,0,0,0,72.072.168a2.262,2.262,0,0,0,2.2-1.092A3.661,3.661,0,0,0,74.382,0h1.176a11.013,11.013,0,0,1-.1-1.554Zm-1.2,1.708c0,1.288-.224,2.436-1.932,2.436a1.245,1.245,0,0,1-1.386-1.274c0-.994.756-1.386,2.17-1.386h1.148ZM77.574,0h1.218V-3.934c0-1.344.546-2.268,1.68-2.268s1.372.812,1.372,1.722V0h1.2V-4.074c0-1.26.5-2.128,1.666-2.128,1.106,0,1.4.868,1.4,1.68V0h1.2V-4.662c0-1.918-1.078-2.6-2.24-2.6a2.416,2.416,0,0,0-2.254,1.274A1.956,1.956,0,0,0,80.85-7.266a2.193,2.193,0,0,0-2.058,1.26c0-.364-.028-.882-.056-1.092H77.56c.014.574.014,1.218.014,1.834ZM90.636,2.786V-.882A2.157,2.157,0,0,0,92.708.168c1.722,0,3.08-1.358,3.08-3.906,0-2.156-1.19-3.528-2.828-3.528a2.443,2.443,0,0,0-2.324,1.288c0-.462-.014-.882-.042-1.12H89.4c.014.546.014,1.148.014,1.736V2.786Zm3.892-6.468c0,1.75-.686,2.814-1.988,2.814-1.484,0-1.96-1.022-1.96-2.688,0-1.736.588-2.66,2.058-2.66C93.842-6.216,94.528-5.194,94.528-3.682Zm8.694.35c.014-.182.014-.364.014-.588,0-1.512-.742-3.346-3.038-3.346-2.156,0-3.22,1.68-3.22,3.794,0,1.82.91,3.64,3.136,3.64a2.9,2.9,0,0,0,3-2.128h-1.246a1.635,1.635,0,0,1-1.708,1.106c-1.2,0-1.932-1.036-1.946-2.478Zm-4.97-.854c.126-1.246.672-2.114,1.932-2.114,1.2,0,1.792.938,1.806,2.114ZM104.8,0h1.232V-3.752c0-1.428.532-2.45,1.876-2.45,1.078,0,1.5.714,1.5,1.792V0h1.232V-4.564c0-1.89-1.036-2.7-2.38-2.7a2.227,2.227,0,0,0-2.226,1.33A10.761,10.761,0,0,0,105.98-7.1h-1.19c.014.546.014,1.176.014,1.792Zm7.924,0h1.232V-7.1h-1.232Zm1.232-8.75v-1.526h-1.232V-8.75ZM116.046,0h1.232V-3.752c0-1.428.532-2.45,1.876-2.45,1.078,0,1.5.714,1.5,1.792V0h1.232V-4.564c0-1.89-1.036-2.7-2.38-2.7a2.227,2.227,0,0,0-2.226,1.33,10.761,10.761,0,0,0-.056-1.162h-1.19c.014.546.014,1.176.014,1.792Zm13.776-5.054c0-.672.014-1.638.014-2.044h-1.148c-.014.14-.056.616-.07.938-.154-.476-.728-1.106-2.086-1.106-1.708,0-3.066,1.414-3.066,3.724,0,2.086,1.19,3.514,2.94,3.514a2.175,2.175,0,0,0,2.212-1.246V-.7c0,1.624-.392,2.646-2,2.646a1.626,1.626,0,0,1-1.75-1.19H123.62c.126.966.784,2.17,2.94,2.17,2.324,0,3.262-1.288,3.262-3.57ZM124.74-3.6c0-1.526.672-2.632,1.988-2.632,1.512,0,1.932.952,1.932,2.548,0,1.568-.448,2.6-1.974,2.6C125.524-1.078,124.74-2.1,124.74-3.6Z" transform="translate(596 -7517.938)"/>
  <path id="Path_1442" data-name="Path 1442" class="cls-1" d="M11.431,14.688a5.976,5.976,0,0,1-4.238-1.734l-.128-.128A3.509,3.509,0,0,0,4.624,11.8a3.509,3.509,0,0,0-2.44,1.027,1.242,1.242,0,0,1-1.8,0,1.242,1.242,0,0,1,0-1.8,5.931,5.931,0,0,1,8.477,0l.128.128a3.449,3.449,0,0,0,4.88,0l.45-.45a6.008,6.008,0,0,1,8.541,0l.257.257a3.412,3.412,0,0,0,4.88,0A5.869,5.869,0,0,1,32.237,9.23a6.026,6.026,0,0,1,4.238,1.734,1.271,1.271,0,0,1-1.8,1.8,3.412,3.412,0,0,0-4.88,0,5.931,5.931,0,0,1-8.477,0l-.257-.257a3.449,3.449,0,0,0-4.88,0l-.45.45A6.238,6.238,0,0,1,11.431,14.688Z" transform="translate(643 -7563.385)"/>
  <path id="Path_1443" data-name="Path 1443" class="cls-1" d="M11.431,5.753A6.026,6.026,0,0,1,7.192,4.019L7.064,3.89a3.509,3.509,0,0,0-2.44-1.027A3.509,3.509,0,0,0,2.183,3.89a1.242,1.242,0,0,1-1.8,0,1.242,1.242,0,0,1,0-1.8,5.931,5.931,0,0,1,8.477,0l.128.064a3.509,3.509,0,0,0,2.44,1.027,3.509,3.509,0,0,0,2.44-1.027l.45-.45a5.931,5.931,0,0,1,8.477,0l.321.257a3.509,3.509,0,0,0,2.44,1.027A3.509,3.509,0,0,0,28,1.964,5.869,5.869,0,0,1,32.237.23a6.026,6.026,0,0,1,4.238,1.734,1.242,1.242,0,0,1,0,1.8,1.242,1.242,0,0,1-1.8,0,3.509,3.509,0,0,0-2.44-1.027A3.576,3.576,0,0,0,29.8,3.826a5.931,5.931,0,0,1-8.477,0l-.257-.257a3.449,3.449,0,0,0-4.88,0l-.45.45A6.3,6.3,0,0,1,11.431,5.753Z" transform="translate(643 -7560.165)"/>
  <path id="Path_1444" data-name="Path 1444" class="cls-1" d="M11.431,24a6.026,6.026,0,0,1-4.238-1.734l-.128-.128a3.449,3.449,0,0,0-4.88,0,1.242,1.242,0,0,1-1.8,0,1.242,1.242,0,0,1,0-1.8,5.931,5.931,0,0,1,8.477,0l.128.128a3.412,3.412,0,0,0,4.88,0l.45-.45a5.988,5.988,0,0,1,8.477,0l.257.257a3.412,3.412,0,0,0,4.88,0,5.988,5.988,0,0,1,8.477,0,1.271,1.271,0,1,1-1.8,1.8,3.449,3.449,0,0,0-4.88,0,5.931,5.931,0,0,1-8.477,0L21,21.818a3.449,3.449,0,0,0-4.88,0l-.45.45A6.026,6.026,0,0,1,11.431,24Z" transform="translate(643 -7566.727)"/>
  <path id="Path_1542" data-name="Path 1542" class="cls-1" d="M4.312,0c.616-2.24,1.876-6.594,2.17-8.05H6.5C6.734-6.888,7.98-2.24,8.568,0H9.954L12.8-9.744H11.522c-.532,2-1.89,6.608-2.212,8.288H9.3c-.21-1.162-1.54-6.1-2.128-8.288H5.908c-.63,2.492-1.974,7.084-2.226,8.33H3.668C3.486-2.52,2.436-6.552,1.68-9.744H.308L2.926,0ZM14,0h1.232V-7.1H14Zm1.232-8.75v-1.526H14V-8.75Zm6.762-1.526v3.92c-.182-.406-.742-.91-2-.91-1.96,0-3.178,1.61-3.178,3.794,0,2.156,1.12,3.64,2.954,3.64a2.214,2.214,0,0,0,2.226-1.176A6.964,6.964,0,0,0,22.064,0H23.24c-.014-.686-.014-1.344-.014-2v-8.274ZM18.088-3.514c0-1.722.77-2.716,2.03-2.716,1.6,0,1.932.994,1.932,2.576,0,1.554-.378,2.786-2.03,2.786C18.9-.868,18.088-1.806,18.088-3.514Zm12.964.182c.014-.182.014-.364.014-.588,0-1.512-.742-3.346-3.038-3.346-2.156,0-3.22,1.68-3.22,3.794,0,1.82.91,3.64,3.136,3.64a2.9,2.9,0,0,0,3-2.128H29.694A1.635,1.635,0,0,1,27.986-.854c-1.2,0-1.932-1.036-1.946-2.478Zm-4.97-.854c.126-1.246.672-2.114,1.932-2.114,1.2,0,1.792.938,1.806,2.114ZM32.634,0h1.232V-3.444c0-1.792.924-2.562,2.38-2.6V-7.266a2.481,2.481,0,0,0-2.38,1.61c0-.686-.028-1.246-.042-1.442h-1.2c0,.378.014.938.014,1.932Zm8.708,0h3.43c2.828,0,4.634-2.086,4.634-4.97a4.415,4.415,0,0,0-4.592-4.774H41.342ZM42.63-8.638h2.044c2.38,0,3.374,1.778,3.374,3.7,0,2.2-1.078,3.85-3.374,3.85H42.63ZM56.938-3.332c.014-.182.014-.364.014-.588,0-1.512-.742-3.346-3.038-3.346-2.156,0-3.22,1.68-3.22,3.794,0,1.82.91,3.64,3.136,3.64a2.9,2.9,0,0,0,3-2.128H55.58A1.635,1.635,0,0,1,53.872-.854c-1.2,0-1.932-1.036-1.946-2.478Zm-4.97-.854C52.094-5.432,52.64-6.3,53.9-6.3c1.2,0,1.792.938,1.806,2.114ZM62.986-2.17A1.689,1.689,0,0,1,61.292-.854c-1.232,0-1.918-1.078-1.918-2.7s.714-2.688,1.96-2.688A1.573,1.573,0,0,1,62.986-4.9H64.2a2.641,2.641,0,0,0-2.842-2.366c-2.114,0-3.248,1.75-3.248,3.752,0,2.282,1.2,3.682,3.164,3.682A2.809,2.809,0,0,0,64.2-2.17Zm3.934-8.106H65.688V0H66.92V-2.52l1.064-1.022L70.364,0h1.442L68.824-4.34,71.5-7.1h-1.47c-.952,1.05-2.52,2.688-3.108,3.388ZM79.562,0c.616-2.24,1.876-6.594,2.17-8.05h.014C81.984-6.888,83.23-2.24,83.818,0H85.2l2.842-9.744H86.772c-.532,2-1.89,6.608-2.212,8.288h-.014c-.21-1.162-1.54-6.1-2.128-8.288h-1.26c-.63,2.492-1.974,7.084-2.226,8.33h-.014c-.182-1.106-1.232-5.138-1.988-8.33H75.558L78.176,0ZM93.9-4.942c0-1.61-.966-2.324-2.7-2.324-2.044,0-2.646,1.12-2.744,2.1h1.19c.126-.546.336-1.134,1.512-1.134,1.33,0,1.526.756,1.526,1.386v.6h-1.2c-2.114,0-3.36.728-3.36,2.31A2.15,2.15,0,0,0,90.51.168a2.262,2.262,0,0,0,2.2-1.092A3.661,3.661,0,0,0,92.82,0H94a11.013,11.013,0,0,1-.1-1.554Zm-1.2,1.708c0,1.288-.224,2.436-1.932,2.436a1.245,1.245,0,0,1-1.386-1.274c0-.994.756-1.386,2.17-1.386h1.148ZM96.012,0h1.232V-7.1H96.012Zm1.232-8.75v-1.526H96.012V-8.75ZM98.63-2.03c.182,1.274,1.092,2.2,2.926,2.2,1.764,0,2.758-.91,2.758-2.156,0-1.05-.434-1.764-2.59-2.282-1.3-.308-1.6-.574-1.6-1.106,0-.462.308-.938,1.3-.938a1.416,1.416,0,0,1,1.54,1.092h1.176c-.084-.98-.84-2.044-2.674-2.044s-2.562.994-2.562,1.988c0,.966.42,1.6,2.45,2.086,1.358.322,1.68.63,1.68,1.3,0,.644-.406,1.092-1.442,1.092A1.6,1.6,0,0,1,99.862-2.03ZM104.916-6.1h1.232v4.452c0,1.176.476,1.75,1.582,1.75a3.267,3.267,0,0,0,1.064-.126V-.952a3.248,3.248,0,0,1-.616.056c-.644,0-.812-.35-.812-1.05V-6.1h1.568V-7.1h-1.568V-9.2h-1.218v2.1h-1.232Z" transform="translate(230 -7517.938)"/>
  <path id="Path_1543" data-name="Path 1543" class="cls-2" d="M0,52V0" transform="translate(376.5 -7565.5)"/>
  <path id="Path_1544" data-name="Path 1544" class="cls-2" d="M0,52V0" transform="translate(563.5 -7565.5)"/>
  <path id="Path_1439" data-name="Path 1439" class="cls-1" d="M18.465,30.084a64.859,64.859,0,0,1-17.339-2.4A1.446,1.446,0,0,1,0,26.256v-6.08A1.6,1.6,0,0,1,.6,18.9a1.455,1.455,0,0,1,1.351-.225,57.535,57.535,0,0,0,33.027,0,1.455,1.455,0,0,1,1.351.225,1.567,1.567,0,0,1,.6,1.2v6.08A1.446,1.446,0,0,1,35.8,27.607,62.456,62.456,0,0,1,18.465,30.084ZM3,25.055a59.714,59.714,0,0,0,30.85,0v-3a61.363,61.363,0,0,1-30.85,0Z" transform="translate(449.053 -7571.184)"/>
  <path id="Path_1440" data-name="Path 1440" class="cls-1" d="M24.1,14.261a2.192,2.192,0,0,1-.676-.15A1.418,1.418,0,0,1,22.6,12.76V1.5a1.5,1.5,0,0,1,3,0V9.983L28.38,8.107a1.51,1.51,0,1,1,1.726,2.477L25,14.036A2.6,2.6,0,0,1,24.1,14.261Z" transform="translate(443.416 -7566.545)"/>
  <path id="Path_1441" data-name="Path 1441" class="cls-1" d="M22.42,14.261a1.513,1.513,0,0,1-.826-.225l-5.1-3.453a1.51,1.51,0,0,1,1.726-2.477l2.777,1.877V1.5a1.5,1.5,0,0,1,3,0V12.76a1.581,1.581,0,0,1-.826,1.351A1.485,1.485,0,0,1,22.42,14.261Z" transform="translate(445.098 -7566.545)"/>
  <path id="Path_1463" data-name="Path 1463" class="cls-1" d="M5.667,16.071A1.8,1.8,0,0,1,4.205,15.3L.25,9.451A1.7,1.7,0,0,1,.164,7.646,1.624,1.624,0,0,1,1.712,6.7h12.9a1.719,1.719,0,1,1,0,3.439H4.979L7.128,13.32a1.762,1.762,0,0,1-.43,2.407A2.444,2.444,0,0,1,5.667,16.071Z" transform="translate(268.055 -7556.459)"/>
  <path id="Path_1464" data-name="Path 1464" class="cls-1" d="M14.614,9.283H1.718A1.811,1.811,0,0,1,.17,8.338,1.924,1.924,0,0,1,.256,6.532L4.3.772A1.68,1.68,0,0,1,6.618.256a1.762,1.762,0,0,1,.43,2.407L4.985,5.844h9.629a1.719,1.719,0,1,1,0,3.439Z" transform="translate(268.049 -7555.518)"/>
  <path id="Path_1465" data-name="Path 1465" class="cls-1" d="M38.515,9.283h-12.9a1.719,1.719,0,0,1,0-3.439h9.715L33.185,2.663A1.682,1.682,0,0,1,33.529.256a1.783,1.783,0,0,1,2.407.516l3.955,5.846a1.7,1.7,0,0,1,.086,1.805A1.664,1.664,0,0,1,38.515,9.283Z" transform="translate(264.695 -7555.518)"/>
  <path id="Path_1466" data-name="Path 1466" class="cls-1" d="M34.547,16.085a1.733,1.733,0,0,1-.946-.258,1.762,1.762,0,0,1-.43-2.407l2.149-3.181h-9.8a1.719,1.719,0,1,1,0-3.439h12.9a1.811,1.811,0,0,1,1.548.946,1.924,1.924,0,0,1-.086,1.805L35.922,15.4A2.123,2.123,0,0,1,34.547,16.085Z" transform="translate(264.709 -7556.473)"/>
</svg>
