<?xml version="1.0" encoding="utf-8"?>
<!-- Generator: Adobe Illustrator 22.0.1, SVG Export Plug-In . SVG Version: 6.00 Build 0)  -->
<svg version="1.1" id="Layer_1" xmlns="http://www.w3.org/2000/svg" xmlns:xlink="http://www.w3.org/1999/xlink" x="0px" y="0px"
	 viewBox="0 0 50 50" style="enable-background:new 0 0 50 50;" xml:space="preserve">
<style type="text/css">
	.st0{fill:#C0A987;stroke:#C0A987;stroke-width:0.25;stroke-miterlimit:10;}
</style>
<path class="st0" d="M42.3,23c-0.5-0.9-1.4-1.4-2.3-1.5c-1.1-0.1-2.2,0.2-3.3,1l-0.1-0.1c-1.1-1.1-3.4-3-6.7-3.4
	c-0.6-0.1-1.1-0.1-1.6-0.2c1-1.1,2.6-2.8,3.9-4.1L34,13c0.6-0.6,1.1-1.2,1.4-1.4c0.8-0.8,1.2-2,1.1-3.2c-0.1-1.1-0.5-2.1-1.2-2.8
	s-1.6-1.1-2.7-1.3c-1.1-0.1-2.2,0.2-3.3,1.1c-1.1,1-2.9,2.6-4.6,4.3c0.6-1.8,1.1-3.4,1.4-4c0.4-1.2,0.3-2.5-0.3-3.5
	c-0.5-0.8-1.3-1.6-2.1-1.9c-1.8-0.7-4.2-0.1-5.2,2c-0.5,1-1.6,3.6-2.6,6.3c-0.1-0.7-0.4-1.3-0.9-1.8c-0.6-0.8-1.5-1.3-2.6-1.5
	c-2-0.2-4.3,0.8-4.8,3.6C7.4,10.7,7,17.8,7,20.6v1.6C6.9,24.6,6.9,27.6,8.2,35c0.9,5.1,3.1,9,6.6,11.7c2.8,2.2,6.3,3.4,9.9,3.4
	s6.8-1,9.6-3c2.5-1.8,4-4.1,4.8-5.5c0.2-0.3,1.1-1.7,2.4-4c0.8-1.4,0.5-2.3,0.7-3.9c0.1-0.5,0.1-1,0.1-1.4c0.1-1.6,0.9-3.5,0.8-5
	C43,25.8,43,24.1,42.3,23z M38.6,36.1c-1.4,2.4-2,3.4-2.2,3.7L36.2,40c-1.4,2.6-4.9,7-11.7,7c-2.9,0-5.7-1-7.9-2.7
	c-2.8-2.1-4.6-5.4-5.4-9.7c-1.2-7-1.2-9.7-1.1-12.1v-1.7c0-2.9,0.4-9.7,0.6-11.2c0.2-0.8,0.7-1,1-1c0.1,0,0.2,0,0.3,0
	c0.4,0,0.7,0.8,0.7,1.2c-0.2,2.1-0.5,11.5-0.5,11.7l0.8,7.9c0.1,0.8,0.8,1.4,1.8,1.4c0.8-0.1,1.4-0.8,1.4-1.7c0,0-0.7-6.8-0.7-6.9
	l0.1-0.3c0-0.3,0.8-3.9,1.6-6.9c0.8-3,3.4-9.6,4-11c0.3-0.6,1-0.5,1.2-0.5c0,0,0.9,0.5,0.6,1.3c-0.7,1.7-3.4,10.1-3.9,12.7
	C18.5,20.7,18,25,18,25c-0.1,0.4,0,0.8,0.3,1.2c0.3,0.3,0.6,0.5,1,0.6h0.2c0.8,0,1.4-0.6,1.6-1.4c0-0.2,0.5-4.2,1.2-7.4
	c0-0.2,0.1-0.4,0.1-0.6l0.1-0.2c0.2-0.3,0.3-0.5,0.5-0.8c1.6-2.3,6.8-7.1,8.4-8.4c0.8-0.6,1.5-0.1,1.7,0.2c0,0,0.2,0.3,0.2,0.6
	c0,0.2,0,0.6-0.3,0.8c-0.2,0.2-0.6,0.6-1,1l-0.9,1c-2.3,2.4-5.4,5.7-6,6.5c-1.3,1.5-2.1,3.5-2.5,5.8v0.3c0,0.8,0.6,1.5,1.4,1.6h0.2
	c0.8,0,1.4-0.6,1.6-1.5c0,0,0.1-0.9,0.5-2c1-0.2,2.3-0.1,3.2,0c2.4,0.3,3.5,1.4,4.2,2.2c1.1,1.1,1.6,2.1,1.5,3c0,0.2-0.1,0.3,0,0.3
	c-0.1,0.1-0.3,0.1-1-0.4l-0.3-0.2c-0.8-0.8-1.8-1.8-4.3-1.8c-3.5,0-6.3,2.8-6.3,6.3s2.8,6.3,6.3,6.3c1.3,0,2.6-0.3,3.7-1.1
	c0.8-0.6,1.5-1.3,1.8-2.2c0.2-0.7,0.3-1.5,0.6-2.2c0.3-0.6,0.7-1.1,1-1.6c0.7-0.9,1.8-2.1,1.8-3.3c0.1-0.5,0.1-1.4-0.4-2.7
	c0.5-0.2,1.2-0.2,1.6-0.2c0.4,0.7,0.4,2,0.5,2.8c0.1,1.3-0.8,2.9-0.8,4.3C39.3,33.4,39.5,34.6,38.6,36.1z M33.9,30.3
	c0,0.1,0,0.1-0.1,0.2c-0.2,0.6-0.6,1-0.9,1.5c-0.2,0.3-0.3,0.5-0.4,0.8c-0.1,0.3-0.1,0.6-0.2,0.8c0,0.1-0.1,0.2-0.2,0.3
	c-0.7,0.7-1.7,0.9-2.6,0.9c-1.4,0-3.2-1.1-3.2-3.2c0-1.8,1.4-3.2,3.2-3.2C30.6,28.4,32.8,29.5,33.9,30.3z"/>
</svg>
