<?xml version="1.0" encoding="utf-8"?>
<!-- Generator: Adobe Illustrator 22.0.1, SVG Export Plug-In . SVG Version: 6.00 Build 0)  -->
<svg version="1.1" id="Layer_1" xmlns="http://www.w3.org/2000/svg" xmlns:xlink="http://www.w3.org/1999/xlink" x="0px" y="0px"
	 viewBox="0 0 50 50" style="enable-background:new 0 0 50 50;" xml:space="preserve">
<style type="text/css">
	.st0{fill:#C0A987;}
</style>
<g>
	<path class="st0" d="M32.4,19.3c-0.8-0.6-1.9-0.5-2.6,0.3l-5.4,6.6l-3.2-2.6c-0.4-0.3-0.9-0.5-1.3-0.4c-0.5,0-0.9,0.3-1.2,0.7
		c-0.3,0.4-0.5,0.9-0.4,1.3c0,0.5,0.3,0.9,0.7,1.2l4.6,3.8c0.3,0.3,0.8,0.4,1.2,0.4c0.1,0,0.1,0,0.2,0c0.5,0,0.9-0.3,1.3-0.7l6.5-8
		C33.3,21.1,33.2,19.9,32.4,19.3L32.4,19.3z"/>
	<path class="st0" d="M25.1,8.9c-8.9,0-16.2,7.3-16.2,16.2s7.3,16.2,16.2,16.2S41.3,34,41.3,25.1C41.2,16.2,34,8.9,25.1,8.9z
		 M25.1,37.8c-7,0-12.7-5.7-12.7-12.7s5.7-12.7,12.7-12.7s12.7,5.7,12.7,12.7S32.1,37.8,25.1,37.8z"/>
	<path class="st0" d="M49.1,31.4L48,26.9c-0.1-0.5-0.2-1.4-0.2-2.2c0-0.7,0.1-1.5,0.2-2l1-4.4v-0.1c0.1-0.4,0.1-0.7,0.1-1.1
		c0-0.9-0.2-1.8-0.7-2.7c-0.3-0.6-0.8-1.2-1.3-1.6l-0.5-0.4c0,0,0,0-0.1,0L42.6,10c-0.4-0.3-1.1-0.8-1.6-1.3
		c-0.6-0.5-1.1-1.2-1.3-1.6l-2.4-3.9c-0.5-0.8-1.2-1.4-2.1-1.9c-0.8-0.4-1.7-0.7-2.6-0.7c-0.4,0-0.8,0-1.2,0.1L26.9,2
		c-0.5,0.1-1.3,0.2-2.1,0.2l0,0c-0.7,0-1.5-0.1-2-0.2l-4.4-1c-0.4-0.1-0.7-0.1-1.1-0.1c-0.9,0-1.8,0.2-2.7,0.7S13,2.7,12.5,3.5
		l-2.4,3.9C9.9,7.8,9.4,8.5,8.8,9c-0.5,0.6-1.2,1.1-1.6,1.3l-3.9,2.4c-0.8,0.5-1.4,1.2-1.9,2.1c-0.4,0.8-0.7,1.7-0.7,2.6
		c0,0.4,0,0.8,0.1,1.2L2,23.1c0.1,0.5,0.2,1.4,0.2,2.2c0,0.7-0.1,1.5-0.2,2l-1,4.4c-0.1,0.4-0.1,0.7-0.1,1.1c0,0.9,0.2,1.8,0.7,2.7
		s1.1,1.6,1.9,2.1L7.4,40c0.4,0.3,1.1,0.8,1.6,1.3c0.6,0.5,1.1,1.2,1.3,1.6l2.4,3.9c0.5,0.8,1.2,1.4,2.1,1.9
		c0.8,0.4,1.7,0.7,2.6,0.7c0.4,0,0.8,0,1.2-0.1l4.4-1.1c0.5-0.1,1.3-0.2,2.1-0.2l0,0c0.7,0,1.5,0.1,2,0.2l4.4,1
		c0.4,0.1,0.7,0.1,1.1,0.1c0.9,0,1.8-0.2,2.7-0.7s1.6-1.1,2.1-1.9l2.4-3.9c0.3-0.4,0.8-1.1,1.3-1.6c0.5-0.6,1.2-1.1,1.6-1.3l3.9-2.4
		c0.8-0.5,1.4-1.2,1.9-2.1c0.4-0.8,0.7-1.7,0.7-2.6C49.2,32.2,49.1,31.5,49.1,31.4z M44.4,27.8l0.8,3.3l0,0l0.3,1.1
		c0,0.1,0,0.2,0,0.3c0,0.3-0.1,0.6-0.2,0.9l0,0c-0.2,0.3-0.4,0.5-0.5,0.6l-3.9,2.4c-0.7,0.4-1.5,1.1-2.3,1.9
		c-0.8,0.8-1.4,1.6-1.9,2.3l-2.4,3.9c-0.1,0.2-0.3,0.4-0.6,0.6c-0.3,0.2-0.6,0.3-0.9,0.3c-0.1,0-0.2,0-0.3,0l-4.4-1
		c-0.8-0.2-1.8-0.3-2.8-0.3c-1.1,0-2.2,0.1-3,0.3l-4.4,1.1c-0.1,0-0.2,0-0.3,0c-0.3,0-0.6-0.1-0.9-0.2c-0.3-0.2-0.5-0.4-0.6-0.5
		l-2.4-3.9c-0.4-0.7-1.1-1.5-1.9-2.3c-0.8-0.8-1.6-1.4-2.3-1.9l-3.9-2.4c-0.4,0-0.6-0.3-0.8-0.6s-0.3-0.6-0.3-0.9c0-0.1,0-0.2,0-0.3
		v-0.1l0,0l1-4.3c0.2-0.8,0.3-1.8,0.3-2.8c0-1.1-0.1-2.2-0.3-3l-1.1-4.4c0-0.1,0-0.2,0-0.3c0-0.3,0.1-0.6,0.2-0.9s0.3-0.5,0.5-0.6
		L9,13.7c0.7-0.4,1.5-1.1,2.3-1.9c0.8-0.8,1.4-1.6,1.9-2.3l2.4-3.9C15.7,5.2,16,5,16.3,4.8s0.6-0.3,0.9-0.3c0.1,0,0.2,0,0.3,0l4.4,1
		c0.8,0.2,1.8,0.3,2.8,0.3c1.1,0,2.2-0.1,3-0.3l4.4-1.1c0.1,0,0.2,0,0.3,0c0.3,0,0.6,0.1,0.9,0.2c0.3,0.2,0.5,0.4,0.6,0.5L36.3,9
		c0.4,0.7,1.1,1.5,1.9,2.3c0.8,0.8,1.6,1.4,2.3,1.9l3.9,2.4c0.2,0.1,0.4,0.3,0.6,0.6c0.2,0.3,0.3,0.6,0.3,0.9c0,0.1,0,0.2,0,0.3
		l-1,4.5c-0.2,0.8-0.3,1.8-0.3,2.8C44.1,25.9,44.2,27,44.4,27.8z"/>
</g>
</svg>
